<svg width="1009.1" height="91.9" viewBox="0 0 1009.1 91.9" xmlns="http://www.w3.org/2000/svg">
    <g id="svgGroup" stroke-linecap="round" fill-rule="evenodd" font-size="9pt" stroke="#000"
        stroke-width="0.25mm" fill="#000" style="stroke:#000;stroke-width:0.25mm;fill:#000">
        <path
            d="M 410 32.2 L 413.8 30 Q 416.4 34.7 419.15 39.05 A 29.253 29.253 0 0 0 422.614 43.545 A 24.204 24.204 0 0 0 425.5 46.15 Q 429.1 48.9 434.3 48.9 Q 437.6 48.9 440.55 47.45 Q 443.5 46 445.4 43.4 A 9.879 9.879 0 0 0 447.277 38.062 A 12.373 12.373 0 0 0 447.3 37.3 A 8.87 8.87 0 0 0 447.024 35.018 A 6.041 6.041 0 0 0 444.85 31.7 A 9.049 9.049 0 0 0 439.408 29.804 A 11.26 11.26 0 0 0 439.1 29.8 A 15.052 15.052 0 0 0 435.339 30.296 A 18.781 18.781 0 0 0 433.3 30.95 A 87.082 87.082 0 0 0 430.641 32.017 Q 429.399 32.541 428.309 33.054 A 51.893 51.893 0 0 0 428 33.2 L 423.7 25.9 A 40.439 40.439 0 0 1 427.672 23.98 A 48.118 48.118 0 0 1 429.65 23.2 Q 432.9 22 436.3 22 L 437.2 22 A 13.905 13.905 0 0 0 439.571 20.142 A 10.95 10.95 0 0 0 441.3 17.95 Q 442.7 15.6 442.7 13.2 A 6.926 6.926 0 0 0 442.396 11.106 A 5.671 5.671 0 0 0 441.1 8.9 A 4.834 4.834 0 0 0 439.221 7.694 Q 437.887 7.2 436 7.2 A 15.45 15.45 0 0 0 433.912 7.356 Q 431.774 7.65 428.982 8.495 A 50.906 50.906 0 0 0 428.8 8.55 A 34.989 34.989 0 0 0 420.364 12.46 A 38.647 38.647 0 0 0 420.3 12.5 L 415.9 5 A 37.545 37.545 0 0 1 421.835 2.139 A 32.322 32.322 0 0 1 424.75 1.2 A 42.249 42.249 0 0 1 427.881 0.475 Q 429.408 0.186 430.752 0.073 A 19.698 19.698 0 0 1 432.4 0 A 18.06 18.06 0 0 1 436.032 0.347 A 12.935 12.935 0 0 1 440.2 1.95 Q 443.4 3.9 445.4 6.9 Q 447.4 9.9 448.35 13.05 Q 449.096 15.524 449.256 17.534 A 13.424 13.424 0 0 1 449.3 18.6 A 11.616 11.616 0 0 1 449.114 20.625 A 14.738 14.738 0 0 1 448.8 22 Q 448.439 23.299 447.349 24.755 A 16.109 16.109 0 0 1 446.4 25.9 Q 446.848 26.273 447.351 26.869 A 13.721 13.721 0 0 1 447.7 27.3 A 20.473 20.473 0 0 0 451.371 30.511 A 22.743 22.743 0 0 0 451.65 30.7 Q 453.9 32.2 458.3 32.2 A 15.186 15.186 0 0 0 463.156 31.451 A 13.046 13.046 0 0 0 467.6 28.9 L 467.8 8.8 L 457.1 8.8 L 453.7 2.3 L 453.7 1.3 L 484.5 1.3 L 487.9 7.8 L 487.9 8.8 L 476.2 8.8 L 476.4 64.3 L 475.4 64.3 L 467.4 59.1 L 467.5 39 A 6.993 6.993 0 0 1 465.912 39.387 A 7.755 7.755 0 0 1 465.8 39.4 A 16.553 16.553 0 0 1 464.424 39.493 A 19.219 19.219 0 0 1 463.9 39.5 Q 461.1 39.5 458.35 38.5 A 27.314 27.314 0 0 1 455.825 37.443 A 20.066 20.066 0 0 1 453.6 36.2 L 453.2 36.4 Q 453.8 37.8 454.05 39.25 A 17.388 17.388 0 0 1 454.265 41.004 A 14.446 14.446 0 0 1 454.3 42 Q 454.3 46.1 452.05 49.3 A 15.31 15.31 0 0 1 446.813 53.929 A 18.316 18.316 0 0 1 446 54.35 A 18.174 18.174 0 0 1 440.539 55.982 A 23.246 23.246 0 0 1 437.3 56.2 A 21.932 21.932 0 0 1 431.036 55.336 A 18.566 18.566 0 0 1 425.95 52.95 Q 421.1 49.7 417.3 44.25 A 108.988 108.988 0 0 1 412.667 36.989 A 129.99 129.99 0 0 1 410 32.2 Z M 263.2 25.4 L 258.7 18 Q 262.6 15.6 266.4 14.45 A 58.176 58.176 0 0 1 269.339 13.64 Q 270.741 13.295 271.993 13.075 A 30.354 30.354 0 0 1 273.1 12.9 L 273.1 8.8 L 254.9 8.8 L 251.5 2.3 L 251.5 1.3 L 321.6 1.3 L 325 7.8 L 325 8.8 L 313.3 8.8 L 313.5 64.8 L 312.5 64.8 L 304.5 59.6 L 304.9 8.8 L 280.8 8.8 L 280.9 13.6 Q 284.7 14.9 287.45 17.6 A 18.592 18.592 0 0 1 291.13 22.619 A 17.563 17.563 0 0 1 291.6 23.65 A 19.392 19.392 0 0 1 292.605 26.714 A 14.437 14.437 0 0 1 293 30 A 13.191 13.191 0 0 1 292.433 33.929 A 11.394 11.394 0 0 1 291.05 36.85 Q 289.1 39.8 286.05 41.85 Q 283 43.9 279.7 45.1 L 295.5 61.2 L 290.4 65.4 L 289.4 65.4 L 274.3 46.4 A 22.327 22.327 0 0 1 272.131 46.658 A 18.333 18.333 0 0 1 270.9 46.7 Q 267.4 46.7 264.75 45.15 A 14.115 14.115 0 0 1 262.291 43.35 A 11.358 11.358 0 0 1 260.6 41.4 A 10.293 10.293 0 0 1 259.716 39.845 Q 259.295 38.913 259.162 38.019 A 5.551 5.551 0 0 1 259.1 37.2 A 3.36 3.36 0 0 1 259.207 36.331 A 2.505 2.505 0 0 1 259.8 35.25 A 1.754 1.754 0 0 1 260.384 34.855 Q 260.968 34.597 261.926 34.527 A 10.591 10.591 0 0 1 262.7 34.5 A 13.063 13.063 0 0 1 266.113 34.972 A 16.676 16.676 0 0 1 268.1 35.65 Q 270.9 36.8 273.5 38.5 A 17.672 17.672 0 0 0 276.255 37.742 Q 277.726 37.213 279.3 36.4 Q 282.4 34.8 284.6 32.25 A 9.301 9.301 0 0 0 286.215 29.651 A 8.089 8.089 0 0 0 286.8 26.6 Q 286.8 23.8 284.8 21.75 Q 282.8 19.7 279.2 19.7 A 12.483 12.483 0 0 0 277.544 19.824 Q 275.781 20.062 273.378 20.759 A 52.635 52.635 0 0 0 272.25 21.1 A 35.647 35.647 0 0 0 266.771 23.364 A 45.083 45.083 0 0 0 263.2 25.4 Z M 970.4 75.4 L 969.3 79.7 Q 957.3 76.7 950 72.4 Q 944.527 69.176 941.274 65.559 A 21.99 21.99 0 0 1 939.35 63.1 A 21.314 21.314 0 0 1 937.06 58.706 A 16.198 16.198 0 0 1 936 53 Q 936 47.9 938.9 43.5 A 23.549 23.549 0 0 1 934.575 38.675 A 27.827 27.827 0 0 1 933.55 37.05 A 16.776 16.776 0 0 1 931.762 32.795 A 14.265 14.265 0 0 1 931.3 29.2 Q 931.3 23.9 935.65 20.6 A 13.425 13.425 0 0 1 939.416 18.655 Q 943.342 17.3 949.3 17.3 L 962.8 17.3 L 962.8 8.8 L 927 8.8 L 923.6 2.3 L 923.6 1.3 L 979 1.3 L 982.4 7.8 L 982.4 8.8 L 971 8.8 Q 971 12.6 971.05 16.75 Q 971.084 19.603 971.095 21.96 A 448.441 448.441 0 0 1 971.1 24 L 969.9 24.8 L 951.1 24.8 A 29.7 29.7 0 0 0 947.666 24.986 Q 944.169 25.394 941.9 26.7 Q 938.6 28.6 938.6 32.7 A 8.351 8.351 0 0 0 939.286 35.979 A 10.046 10.046 0 0 0 939.6 36.65 Q 940.6 38.6 941.9 39.9 A 24.466 24.466 0 0 1 949.02 35.435 A 27.673 27.673 0 0 1 949.35 35.3 Q 953.6 33.6 958.3 33.6 A 23.707 23.707 0 0 1 961.847 33.851 Q 964.308 34.224 966.25 35.15 Q 969.5 36.7 971.45 39.1 A 17.715 17.715 0 0 1 973.437 42.1 A 14.932 14.932 0 0 1 974.3 44.1 A 18.585 18.585 0 0 1 974.883 46.13 Q 975.121 47.198 975.18 48.166 A 10.345 10.345 0 0 1 975.2 48.8 A 11.554 11.554 0 0 1 970.732 57.97 Q 968.946 59.47 966.446 60.706 A 30.832 30.832 0 0 1 964.7 61.5 L 960 54.8 A 22.871 22.871 0 0 0 964.555 51.911 A 20.659 20.659 0 0 0 965.75 50.85 A 7.744 7.744 0 0 0 968.198 45.218 A 9.85 9.85 0 0 0 968.2 45 A 6.626 6.626 0 0 0 968.005 43.339 A 4.318 4.318 0 0 0 966.2 40.75 A 7.089 7.089 0 0 0 964.184 39.833 Q 963.251 39.564 962.133 39.462 A 15.802 15.802 0 0 0 960.7 39.4 A 16.83 16.83 0 0 0 955.068 40.324 A 15.429 15.429 0 0 0 952.25 41.65 A 17.117 17.117 0 0 0 946.986 46.478 A 16.664 16.664 0 0 0 946.35 47.45 A 14.631 14.631 0 0 0 944.415 52.467 A 13.741 13.741 0 0 0 944.2 54.9 A 11.935 11.935 0 0 0 944.918 58.888 Q 945.485 60.495 946.5 62.15 Q 948.187 64.901 951.729 67.463 A 36.62 36.62 0 0 0 954.55 69.3 A 40.952 40.952 0 0 0 959.017 71.555 Q 963.772 73.628 970.4 75.4 Z M 255.5 69.8 L 250.3 73.1 L 249.4 73.1 L 240.2 57 Q 237.4 57.8 233.9 57.8 Q 228.7 57.8 223.9 55.65 Q 219.1 53.5 215.3 49.8 Q 211.5 46.1 209.3 41.45 Q 207.1 36.8 207.1 31.7 A 16.416 16.416 0 0 1 207.399 28.466 Q 207.99 25.526 209.75 23.6 A 12.529 12.529 0 0 1 213.62 20.774 A 17.722 17.722 0 0 1 217.1 19.55 A 37.255 37.255 0 0 1 221.519 18.764 Q 223.797 18.491 226.36 18.423 A 65.409 65.409 0 0 1 228.1 18.4 L 235.6 18.4 L 235.6 8.8 L 202.2 8.8 L 198.8 2.3 L 198.8 1.3 L 253.7 1.3 L 257.1 7.8 L 257.1 8.8 L 243.8 8.8 A 766.226 766.226 0 0 0 243.844 16.895 A 835.486 835.486 0 0 0 243.85 17.45 Q 243.884 20.51 243.895 22.978 A 488.873 488.873 0 0 1 243.9 25.1 L 242.7 25.9 L 228.6 25.9 A 26.602 26.602 0 0 0 224.518 26.194 Q 220.897 26.757 218.4 28.4 A 8.111 8.111 0 0 0 214.712 34.324 A 12.058 12.058 0 0 0 214.6 36 A 18.053 18.053 0 0 0 214.992 39.854 A 13.478 13.478 0 0 0 216.65 44.05 A 14.605 14.605 0 0 0 219.792 47.722 A 13.346 13.346 0 0 0 221.9 49.15 Q 225.1 50.9 228.6 50.9 A 21.108 21.108 0 0 0 230.917 50.767 A 26.247 26.247 0 0 0 232.45 50.55 Q 234.5 50.2 236 49.3 Q 234.88 47.06 234.152 45.168 A 33.3 33.3 0 0 1 234.05 44.9 Q 233.532 43.519 233.372 42.424 A 6.395 6.395 0 0 1 233.3 41.5 A 4.784 4.784 0 0 1 233.379 40.597 Q 233.476 40.094 233.691 39.71 A 2.194 2.194 0 0 1 234.25 39.05 A 3.291 3.291 0 0 1 235.443 38.465 Q 235.917 38.336 236.479 38.308 A 6.415 6.415 0 0 1 236.8 38.3 A 9.701 9.701 0 0 1 238.918 38.549 Q 239.9 38.769 240.965 39.183 A 18.834 18.834 0 0 1 241.95 39.6 A 18.046 18.046 0 0 1 246.815 42.823 A 17.203 17.203 0 0 1 246.95 42.95 A 8.175 8.175 0 0 1 248.174 44.401 A 5.416 5.416 0 0 1 249.1 47.4 A 4.02 4.02 0 0 1 249.031 48.095 Q 248.9 48.829 248.524 49.864 A 22.731 22.731 0 0 1 248.2 50.7 A 7.801 7.801 0 0 1 246.956 52.729 Q 246.061 53.806 244.7 54.8 L 255.5 69.8 Z M 577.5 61.1 L 572.4 65.3 L 571.4 65.3 L 553.7 43.7 Q 550.006 39.101 548.131 36.179 A 26.911 26.911 0 0 1 547.1 34.45 Q 545.422 31.342 545.4 29.158 A 5.745 5.745 0 0 1 545.4 29.1 Q 545.4 26.045 550.05 25.907 A 15.184 15.184 0 0 1 550.5 25.9 Q 551.648 25.9 553.471 26.018 A 106.79 106.79 0 0 1 554.65 26.1 Q 557.3 26.3 559.1 26.5 Q 559.534 24.332 559.704 21.6 A 52.668 52.668 0 0 0 559.75 20.75 A 164.28 164.28 0 0 0 559.841 18.432 Q 559.871 17.516 559.885 16.683 A 90.22 90.22 0 0 0 559.9 15.1 Q 559.9 12.9 559.85 11.45 Q 559.8 10 559.7 8.8 L 541.4 8.8 L 538 2.3 L 538 1.3 L 608.1 1.3 L 611.5 7.8 L 611.5 8.8 L 599.8 8.8 L 600 64.3 L 599 64.3 L 591 59.1 L 591.1 39.4 Q 587 40.9 582.5 40.9 Q 579.7 40.9 575.3 39.75 A 17.639 17.639 0 0 1 572.121 38.552 Q 568.941 37.019 565.2 34 A 10.306 10.306 0 0 1 560.228 38.503 A 16.047 16.047 0 0 1 556.7 39.6 L 577.5 61.1 Z M 808.8 61.1 L 803.7 65.3 L 802.7 65.3 L 785 43.7 Q 781.306 39.101 779.431 36.179 A 26.911 26.911 0 0 1 778.4 34.45 Q 776.722 31.342 776.7 29.158 A 5.745 5.745 0 0 1 776.7 29.1 Q 776.7 26.045 781.35 25.907 A 15.184 15.184 0 0 1 781.8 25.9 Q 782.948 25.9 784.771 26.018 A 106.79 106.79 0 0 1 785.95 26.1 Q 788.6 26.3 790.4 26.5 Q 790.834 24.332 791.004 21.6 A 52.668 52.668 0 0 0 791.05 20.75 A 164.28 164.28 0 0 0 791.141 18.432 Q 791.171 17.516 791.185 16.683 A 90.22 90.22 0 0 0 791.2 15.1 Q 791.2 12.9 791.15 11.45 Q 791.1 10 791 8.8 L 772.7 8.8 L 769.3 2.3 L 769.3 1.3 L 839.4 1.3 L 842.8 7.8 L 842.8 8.8 L 831.1 8.8 L 831.3 64.3 L 830.3 64.3 L 822.3 59.1 L 822.4 39.4 Q 818.3 40.9 813.8 40.9 Q 811 40.9 806.6 39.75 A 17.639 17.639 0 0 1 803.421 38.552 Q 800.241 37.019 796.5 34 A 10.306 10.306 0 0 1 791.528 38.503 A 16.047 16.047 0 0 1 788 39.6 L 808.8 61.1 Z M 682.2 8.8 L 675.4 8.8 L 672 2.3 L 672 1.3 L 745.5 1.3 L 748.9 7.8 L 748.9 8.8 L 737.2 8.8 L 737.4 64.3 L 736.4 64.3 L 728.4 59.1 L 728.8 8.8 L 716.4 8.8 L 716.4 32.5 A 16.737 16.737 0 0 1 715.337 38.297 A 19.851 19.851 0 0 1 714.85 39.5 Q 713.3 43 710.15 45.25 A 11.609 11.609 0 0 1 705.988 47.085 Q 704.373 47.461 702.492 47.497 A 20.888 20.888 0 0 1 702.1 47.5 Q 698.3 47.5 694.8 45.7 Q 691.3 43.9 688.5 41.1 A 27.639 27.639 0 0 1 685.58 37.687 A 22.685 22.685 0 0 1 684.05 35.25 A 18.872 18.872 0 0 1 682.982 32.936 Q 682.508 31.677 682.311 30.505 A 10.215 10.215 0 0 1 682.2 29.6 Q 682.1 28.2 682.1 27 L 682.1 24.7 A 493.571 493.571 0 0 1 682.107 22.146 Q 682.113 21.017 682.124 19.78 A 879.122 879.122 0 0 1 682.15 17.2 Q 682.2 12.9 682.2 8.8 Z M 882.2 26.5 L 882.4 8.8 L 840.6 8.8 L 837.2 2.3 L 837.2 1.3 L 899.1 1.3 L 902.5 7.8 L 902.5 8.8 L 890.8 8.8 L 891 64.3 L 890 64.3 L 882 59.1 L 882.1 43.2 Q 879.42 44.961 877.268 46.253 A 84.78 84.78 0 0 1 876 47 Q 873.4 48.5 870.85 49.25 A 18.024 18.024 0 0 1 867.787 49.855 A 23.923 23.923 0 0 1 865.1 50 A 25.397 25.397 0 0 1 860.529 49.608 A 18.858 18.858 0 0 1 856 48.2 A 21.173 21.173 0 0 1 851.324 45.285 A 18.769 18.769 0 0 1 849.45 43.5 A 22.059 22.059 0 0 1 846.532 39.522 A 19.242 19.242 0 0 1 845.45 37.3 A 19.6 19.6 0 0 1 844.492 34.343 A 14.246 14.246 0 0 1 844.1 31.1 Q 844.1 26.9 846.65 23.6 Q 849.2 20.3 853.4 18.45 A 22.139 22.139 0 0 1 861.814 16.609 A 25.576 25.576 0 0 1 862.5 16.6 Q 868.5 16.6 873.5 19.4 Q 878.5 22.2 882.2 26.5 Z M 10.6 32.3 L 16 32.3 L 16.1 8.8 L 3.4 8.8 L 0 2.3 L 0 1.3 L 63.4 1.3 L 66.8 7.8 L 66.8 8.8 L 55.1 8.8 L 55.3 64.3 L 54.3 64.3 L 46.3 59.1 L 46.4 39.8 L 24.5 39.8 L 24.5 47 A 3.94 3.94 0 0 1 24.394 47.959 Q 24.006 49.5 22.2 49.5 A 3.906 3.906 0 0 1 21.152 49.341 Q 20.165 49.065 18.914 48.308 A 17.3 17.3 0 0 1 18.35 47.95 A 25.808 25.808 0 0 1 15.706 45.938 A 33.702 33.702 0 0 1 13.65 44 A 31.217 31.217 0 0 1 10.831 40.708 A 26.558 26.558 0 0 1 9.7 39.05 A 14.454 14.454 0 0 1 8.874 37.557 Q 8.511 36.79 8.318 36.093 A 5.615 5.615 0 0 1 8.1 34.6 Q 8.1 33.7 8.7 33 A 1.848 1.848 0 0 1 9.52 32.459 Q 9.822 32.355 10.193 32.319 A 4.231 4.231 0 0 1 10.6 32.3 Z M 106.9 8.8 L 91.3 8.8 L 87.9 2.3 L 87.9 1.3 L 148.3 1.3 L 151.7 7.8 L 151.7 8.8 L 140 8.8 L 140.2 64.3 L 139.2 64.3 L 131.2 59.1 L 131.3 46.1 A 22.532 22.532 0 0 1 128.019 47.929 A 17.987 17.987 0 0 1 125.3 48.9 Q 122.3 49.7 119.6 49.7 Q 113.7 49.7 108.45 46.55 Q 103.2 43.4 99.55 38.1 Q 95.9 32.8 94.7 26.2 A 78.602 78.602 0 0 0 98.759 25.104 Q 102.642 23.934 105.103 22.644 A 17.325 17.325 0 0 0 106.15 22.05 Q 109.8 19.8 109.8 16.4 A 6.839 6.839 0 0 0 109.723 15.424 Q 109.577 14.413 109.15 13.1 A 13.131 13.131 0 0 0 108.399 11.293 Q 107.952 10.398 107.338 9.451 A 24.283 24.283 0 0 0 106.9 8.8 Z M 338.4 8.8 L 322.8 8.8 L 319.4 2.3 L 319.4 1.3 L 379.8 1.3 L 383.2 7.8 L 383.2 8.8 L 371.5 8.8 L 371.7 64.3 L 370.7 64.3 L 362.7 59.1 L 362.8 46.1 A 22.532 22.532 0 0 1 359.519 47.929 A 17.987 17.987 0 0 1 356.8 48.9 Q 353.8 49.7 351.1 49.7 Q 345.2 49.7 339.95 46.55 Q 334.7 43.4 331.05 38.1 Q 327.4 32.8 326.2 26.2 A 78.602 78.602 0 0 0 330.259 25.104 Q 334.142 23.934 336.603 22.644 A 17.325 17.325 0 0 0 337.65 22.05 Q 341.3 19.8 341.3 16.4 A 6.839 6.839 0 0 0 341.223 15.424 Q 341.077 14.413 340.65 13.1 A 13.131 13.131 0 0 0 339.899 11.293 Q 339.452 10.398 338.838 9.451 A 24.283 24.283 0 0 0 338.4 8.8 Z M 672.7 61.1 L 667.6 65.3 L 666.6 65.3 L 646.8 41 Q 643.75 37.291 642.161 34.703 A 23.252 23.252 0 0 1 641.55 33.65 A 20.612 20.612 0 0 1 640.818 32.178 Q 640.178 30.736 640.039 29.666 A 4.391 4.391 0 0 1 640 29.1 Q 640 26.045 644.65 25.907 A 15.184 15.184 0 0 1 645.1 25.9 Q 646.6 25.9 649.2 26.1 Q 651.8 26.3 653.6 26.5 Q 654.034 24.332 654.204 21.6 A 52.668 52.668 0 0 0 654.25 20.75 A 164.28 164.28 0 0 0 654.341 18.432 Q 654.371 17.516 654.385 16.683 A 90.22 90.22 0 0 0 654.4 15.1 A 149.429 149.429 0 0 0 654.393 13.61 Q 654.387 13.024 654.376 12.496 A 77.124 77.124 0 0 0 654.35 11.5 A 64.606 64.606 0 0 0 654.289 10.096 Q 654.251 9.41 654.2 8.8 L 636 8.8 L 632.6 2.3 L 632.6 1.3 L 674.2 1.3 L 677.6 7.8 L 677.6 8.8 L 662.5 8.8 Q 662.6 10.7 662.7 13 A 214.24 214.24 0 0 1 662.743 14.048 Q 662.8 15.522 662.8 16.2 A 91.656 91.656 0 0 1 662.683 20.993 Q 662.442 25.574 661.707 28.755 A 25.659 25.659 0 0 1 661.6 29.2 A 22.173 22.173 0 0 1 660.653 32.154 Q 660.048 33.646 659.268 34.803 A 10.216 10.216 0 0 1 657.95 36.4 A 12.078 12.078 0 0 1 652.565 39.436 A 14.59 14.59 0 0 1 651.9 39.6 L 672.7 61.1 Z M 492.5 8.8 L 485.7 8.8 L 482.3 2.3 L 482.3 1.3 L 540.2 1.3 L 543.6 7.8 L 543.6 8.8 L 531.9 8.8 L 532.1 64.3 L 531.1 64.3 L 523.1 59.1 L 523.2 43.3 A 24.763 24.763 0 0 1 518.943 45.372 Q 516.013 46.447 513.179 46.498 A 15.666 15.666 0 0 1 512.9 46.5 Q 509 46.5 505.4 44.7 Q 501.8 42.9 498.9 40.1 A 27.003 27.003 0 0 1 495.879 36.67 A 22.219 22.219 0 0 1 494.3 34.2 Q 492.6 31.1 492.5 28.6 Q 492.4 27.2 492.4 26 L 492.4 23.7 Q 492.4 20.5 492.45 16.6 Q 492.5 12.7 492.5 8.8 Z M 93.5 7.8 L 93.5 8.8 L 81.8 8.8 L 82 64.8 L 81 64.8 L 73 59.6 L 73.4 8.8 L 64.6 8.8 L 61.2 2.3 L 61.2 1.3 L 90.1 1.3 L 93.5 7.8 Z M 178.4 7.8 L 178.4 8.8 L 166.7 8.8 L 166.9 64.8 L 165.9 64.8 L 157.9 59.6 L 158.3 8.8 L 149.5 8.8 L 146.1 2.3 L 146.1 1.3 L 175 1.3 L 178.4 7.8 Z M 638.2 7.8 L 638.2 8.8 L 626.5 8.8 L 626.7 64.8 L 625.7 64.8 L 617.7 59.6 L 618.1 8.8 L 609.3 8.8 L 605.9 2.3 L 605.9 1.3 L 634.8 1.3 L 638.2 7.8 Z M 929.2 7.8 L 929.2 8.8 L 917.5 8.8 L 917.7 64.8 L 916.7 64.8 L 908.7 59.6 L 909.1 8.8 L 900.3 8.8 L 896.9 2.3 L 896.9 1.3 L 925.8 1.3 L 929.2 7.8 Z M 1009.1 7.8 L 1009.1 8.8 L 997.4 8.8 L 997.6 64.8 L 996.6 64.8 L 988.6 59.6 L 989 8.8 L 980.2 8.8 L 976.8 2.3 L 976.8 1.3 L 1005.7 1.3 L 1009.1 7.8 Z M 131.4 36.3 L 131.6 8.8 L 112.4 8.8 A 41.808 41.808 0 0 1 114.624 12.572 Q 116.742 16.679 116.972 19.924 A 10.995 10.995 0 0 1 117 20.7 A 8.53 8.53 0 0 1 114.799 26.425 A 11.931 11.931 0 0 1 113.85 27.4 Q 110.998 30.026 104.742 31.914 A 54.314 54.314 0 0 1 103.4 32.3 Q 103.5 35.3 105.15 37.85 Q 106.8 40.4 109.55 41.9 A 12.4 12.4 0 0 0 114.847 43.376 A 14.879 14.879 0 0 0 115.7 43.4 A 15.679 15.679 0 0 0 119.454 42.921 Q 121.064 42.524 122.772 41.798 A 26.333 26.333 0 0 0 123 41.7 Q 126.195 40.307 129.794 37.572 A 53.771 53.771 0 0 0 131.4 36.3 Z M 362.9 36.3 L 363.1 8.8 L 343.9 8.8 A 41.808 41.808 0 0 1 346.124 12.572 Q 348.242 16.679 348.472 19.924 A 10.995 10.995 0 0 1 348.5 20.7 A 8.53 8.53 0 0 1 346.299 26.425 A 11.931 11.931 0 0 1 345.35 27.4 Q 342.498 30.026 336.242 31.914 A 54.314 54.314 0 0 1 334.9 32.3 Q 335 35.3 336.65 37.85 Q 338.3 40.4 341.05 41.9 A 12.4 12.4 0 0 0 346.347 43.376 A 14.879 14.879 0 0 0 347.2 43.4 A 15.679 15.679 0 0 0 350.954 42.921 Q 352.564 42.524 354.272 41.798 A 26.333 26.333 0 0 0 354.5 41.7 Q 357.695 40.307 361.294 37.572 A 53.771 53.771 0 0 0 362.9 36.3 Z M 251.9 80.3 L 256.7 86.5 A 17.352 17.352 0 0 1 255.654 87.098 Q 254.487 87.718 252.76 88.475 A 81.448 81.448 0 0 1 251.65 88.95 A 17.804 17.804 0 0 1 247.696 90.071 Q 245.877 90.377 243.814 90.399 A 30.066 30.066 0 0 1 243.5 90.4 A 23.484 23.484 0 0 1 239.485 90.077 Q 237.24 89.687 235.415 88.827 A 12.845 12.845 0 0 1 234 88.05 A 17.85 17.85 0 0 1 230.861 85.551 A 14.016 14.016 0 0 1 228.5 82.4 A 18.506 18.506 0 0 1 227.475 80.214 Q 227.039 79.085 226.848 78.051 A 8.545 8.545 0 0 1 226.7 76.5 Q 226.7 73.3 228.85 70.9 A 14.091 14.091 0 0 1 231.897 68.368 A 18.747 18.747 0 0 1 234.55 67 Q 238.1 65.5 242.2 65.2 L 246.8 71.2 L 246.8 71.8 A 41.932 41.932 0 0 0 243.765 72.138 Q 240.663 72.607 238.6 73.5 A 16.966 16.966 0 0 0 236.896 74.347 Q 236.079 74.816 235.456 75.324 A 6.65 6.65 0 0 0 234.35 76.45 Q 233.1 78.1 233.1 79.6 A 3.313 3.313 0 0 0 233.397 80.935 Q 233.733 81.703 234.45 82.5 A 3.514 3.514 0 0 0 235.656 83.339 Q 236.812 83.853 238.673 83.967 A 18.361 18.361 0 0 0 239.8 84 A 18.167 18.167 0 0 0 242.583 83.775 A 24.639 24.639 0 0 0 245.25 83.2 A 21.805 21.805 0 0 0 247.771 82.336 Q 249.703 81.547 251.9 80.3 Z M 523.3 32.9 L 523.5 8.8 L 501 8.8 L 501.2 30.8 Q 501.2 33.687 501.995 35.633 A 6.495 6.495 0 0 0 503.4 37.8 Q 505.589 39.989 508.075 40 A 5.683 5.683 0 0 0 508.1 40 A 11.423 11.423 0 0 0 510.856 39.64 Q 512.088 39.333 513.423 38.766 A 23.443 23.443 0 0 0 514.85 38.1 A 53.126 53.126 0 0 0 518.054 36.326 Q 519.742 35.318 521.589 34.077 A 101.739 101.739 0 0 0 523.3 32.9 Z M 304.3 75.3 L 300.6 67.4 L 300.8 66.8 A 37.949 37.949 0 0 1 303.668 66.37 Q 305.025 66.221 306.252 66.203 A 23.056 23.056 0 0 1 306.6 66.2 Q 309.9 66.2 313 67.45 A 23.771 23.771 0 0 1 316.681 69.34 A 30.358 30.358 0 0 1 319.2 71.1 Q 320.397 72.021 323.12 74.383 A 315.282 315.282 0 0 1 323.6 74.8 Q 326.494 77.321 330.086 80.539 A 879.261 879.261 0 0 1 330.6 81 Q 334.5 84.5 338.2 88.1 L 334.8 91.9 L 334.1 91.9 Q 329.539 86.769 326.332 83.444 A 147.475 147.475 0 0 0 326 83.1 A 85.089 85.089 0 0 0 323.838 80.946 Q 321.875 79.064 320.3 77.85 A 18.838 18.838 0 0 0 318.265 76.473 Q 317.183 75.845 316.133 75.463 A 10.903 10.903 0 0 0 315.65 75.3 A 15.471 15.471 0 0 0 312.503 74.683 A 19.157 19.157 0 0 0 310.7 74.6 Q 308.3 74.6 306.7 74.9 Q 305.55 75.116 304.814 75.228 A 19.499 19.499 0 0 1 304.3 75.3 Z M 822.1 75.3 L 818.4 67.4 L 818.6 66.8 A 37.949 37.949 0 0 1 821.468 66.37 Q 822.825 66.221 824.052 66.203 A 23.056 23.056 0 0 1 824.4 66.2 Q 827.7 66.2 830.8 67.45 A 23.771 23.771 0 0 1 834.481 69.34 A 30.358 30.358 0 0 1 837 71.1 Q 838.197 72.021 840.92 74.383 A 315.282 315.282 0 0 1 841.4 74.8 Q 844.294 77.321 847.886 80.539 A 879.261 879.261 0 0 1 848.4 81 Q 852.3 84.5 856 88.1 L 852.6 91.9 L 851.9 91.9 Q 847.339 86.769 844.132 83.444 A 147.475 147.475 0 0 0 843.8 83.1 A 85.089 85.089 0 0 0 841.638 80.946 Q 839.675 79.064 838.1 77.85 A 18.838 18.838 0 0 0 836.065 76.473 Q 834.983 75.845 833.933 75.463 A 10.903 10.903 0 0 0 833.45 75.3 A 15.471 15.471 0 0 0 830.303 74.683 A 19.157 19.157 0 0 0 828.5 74.6 Q 826.1 74.6 824.5 74.9 Q 823.35 75.116 822.614 75.228 A 19.499 19.499 0 0 1 822.1 75.3 Z M 708 8.8 L 690.7 8.8 L 690.9 31.8 A 17.412 17.412 0 0 0 691.066 34.295 Q 691.252 35.574 691.645 36.596 A 6.554 6.554 0 0 0 693 38.8 A 7.016 7.016 0 0 0 697.842 40.984 A 9.457 9.457 0 0 0 698.4 41 Q 702.2 41 705.1 38.45 A 8.011 8.011 0 0 0 707.445 34.743 Q 707.861 33.417 707.965 31.806 A 17.159 17.159 0 0 0 708 30.7 L 708 8.8 Z M 46.5 32.3 L 46.7 8.8 L 24.3 8.8 L 24.4 32.3 L 46.5 32.3 Z M 591.2 29.5 L 591.4 8.8 L 567.8 8.8 Q 568 10.7 568.05 13 A 427.727 427.727 0 0 1 568.072 14.048 Q 568.093 15.176 568.098 15.839 A 47.501 47.501 0 0 1 568.1 16.2 Q 568.1 20.6 567.75 24.2 A 56.68 56.68 0 0 1 567.507 26.314 Q 567.213 28.488 566.8 30 A 10.734 10.734 0 0 0 567.653 30.443 Q 568.703 30.935 570.25 31.45 A 37.45 37.45 0 0 0 573.794 32.435 A 43.012 43.012 0 0 0 575.05 32.7 A 27.045 27.045 0 0 0 578.14 33.13 A 22.54 22.54 0 0 0 579.9 33.2 Q 583.4 33.2 586.5 32.05 Q 589.6 30.9 591.2 29.5 Z M 822.5 29.5 L 822.7 8.8 L 799.1 8.8 Q 799.3 10.7 799.35 13 A 427.727 427.727 0 0 1 799.372 14.048 Q 799.393 15.176 799.398 15.839 A 47.501 47.501 0 0 1 799.4 16.2 Q 799.4 20.6 799.05 24.2 A 56.68 56.68 0 0 1 798.807 26.314 Q 798.512 28.488 798.1 30 A 10.734 10.734 0 0 0 798.953 30.443 Q 800.003 30.935 801.55 31.45 A 37.45 37.45 0 0 0 805.094 32.435 A 43.012 43.012 0 0 0 806.35 32.7 A 27.045 27.045 0 0 0 809.44 33.13 A 22.54 22.54 0 0 0 811.2 33.2 Q 814.7 33.2 817.8 32.05 Q 820.9 30.9 822.5 29.5 Z M 882.2 32.8 L 882.2 32 A 26.565 26.565 0 0 0 877.854 28.619 A 34.323 34.323 0 0 0 874.25 26.65 A 23.324 23.324 0 0 0 868.144 24.691 A 20.619 20.619 0 0 0 864.7 24.4 A 17.696 17.696 0 0 0 859.914 25.021 A 14.27 14.27 0 0 0 855.3 27.25 Q 851.4 30.1 851.4 35.4 A 9.114 9.114 0 0 0 851.731 37.926 A 6.658 6.658 0 0 0 854.2 41.5 A 10.501 10.501 0 0 0 859.981 43.575 A 13.188 13.188 0 0 0 860.8 43.6 A 14.127 14.127 0 0 0 863.972 43.212 Q 866.471 42.635 869.4 41.2 A 43.691 43.691 0 0 0 872.664 39.404 Q 876.707 36.972 882.2 32.8 Z"
            vector-effect="non-scaling-stroke" />
    </g>
</svg>