<svg width="1246.3" height="119.7" viewBox="0 0 1246.3 119.7" xmlns="http://www.w3.org/2000/svg"><g id="svgGroup" stroke-linecap="round" fill-rule="evenodd" font-size="9pt" stroke="#000" stroke-width="0.25mm" fill="#000" style="stroke:#000;stroke-width:0.25mm;fill:#000"><path d="M 0 60 L 3.8 57.8 Q 6.4 62.5 9.15 66.85 A 29.253 29.253 0 0 0 12.614 71.345 A 24.204 24.204 0 0 0 15.5 73.95 Q 19.1 76.7 24.3 76.7 Q 27.6 76.7 30.55 75.25 Q 33.5 73.8 35.4 71.2 A 9.879 9.879 0 0 0 37.277 65.862 A 12.373 12.373 0 0 0 37.3 65.1 A 8.87 8.87 0 0 0 37.024 62.817 A 6.041 6.041 0 0 0 34.85 59.5 A 9.049 9.049 0 0 0 29.408 57.604 A 11.26 11.26 0 0 0 29.1 57.6 A 15.052 15.052 0 0 0 25.339 58.095 A 18.781 18.781 0 0 0 23.3 58.75 A 87.082 87.082 0 0 0 20.641 59.817 Q 19.399 60.341 18.309 60.854 A 51.893 51.893 0 0 0 18 61 L 13.7 53.7 A 40.439 40.439 0 0 1 17.672 51.779 A 48.118 48.118 0 0 1 19.65 51 Q 22.9 49.8 26.3 49.8 L 27.2 49.8 A 13.905 13.905 0 0 0 29.571 47.941 A 10.95 10.95 0 0 0 31.3 45.75 Q 32.7 43.4 32.7 41 A 6.926 6.926 0 0 0 32.396 38.906 A 5.671 5.671 0 0 0 31.1 36.7 A 4.834 4.834 0 0 0 29.221 35.494 Q 27.887 35 26 35 A 15.45 15.45 0 0 0 23.912 35.156 Q 21.774 35.449 18.982 36.294 A 50.906 50.906 0 0 0 18.8 36.35 A 34.989 34.989 0 0 0 10.364 40.259 A 38.647 38.647 0 0 0 10.3 40.3 L 5.9 32.8 A 37.545 37.545 0 0 1 11.835 29.938 A 32.322 32.322 0 0 1 14.75 29 A 42.249 42.249 0 0 1 17.881 28.275 Q 19.408 27.985 20.752 27.872 A 19.698 19.698 0 0 1 22.4 27.8 A 18.06 18.06 0 0 1 26.032 28.147 A 12.935 12.935 0 0 1 30.2 29.75 Q 33.4 31.7 35.4 34.7 Q 37.4 37.7 38.35 40.85 Q 39.096 43.323 39.256 45.334 A 13.424 13.424 0 0 1 39.3 46.4 A 11.616 11.616 0 0 1 39.114 48.424 A 14.738 14.738 0 0 1 38.8 49.8 Q 38.439 51.099 37.349 52.554 A 16.109 16.109 0 0 1 36.4 53.7 Q 36.848 54.073 37.351 54.669 A 13.721 13.721 0 0 1 37.7 55.1 A 20.473 20.473 0 0 0 41.371 58.311 A 22.743 22.743 0 0 0 41.65 58.5 Q 43.9 60 48.3 60 A 15.186 15.186 0 0 0 53.156 59.251 A 13.046 13.046 0 0 0 57.6 56.7 L 57.8 36.6 L 47.1 36.6 L 43.7 30.1 L 43.7 29.1 L 74.5 29.1 L 77.9 35.6 L 77.9 36.6 L 66.2 36.6 L 66.4 92.1 L 65.4 92.1 L 57.4 86.9 L 57.5 66.8 A 6.993 6.993 0 0 1 55.912 67.187 A 7.755 7.755 0 0 1 55.8 67.2 A 16.553 16.553 0 0 1 54.424 67.293 A 19.219 19.219 0 0 1 53.9 67.3 Q 51.1 67.3 48.35 66.3 A 27.314 27.314 0 0 1 45.825 65.243 A 20.066 20.066 0 0 1 43.6 64 L 43.2 64.2 Q 43.8 65.6 44.05 67.05 A 17.388 17.388 0 0 1 44.265 68.804 A 14.446 14.446 0 0 1 44.3 69.8 Q 44.3 73.9 42.05 77.1 A 15.31 15.31 0 0 1 36.813 81.729 A 18.316 18.316 0 0 1 36 82.15 A 18.174 18.174 0 0 1 30.539 83.781 A 23.246 23.246 0 0 1 27.3 84 A 21.932 21.932 0 0 1 21.036 83.136 A 18.566 18.566 0 0 1 15.95 80.75 Q 11.1 77.5 7.3 72.05 A 108.988 108.988 0 0 1 2.667 64.788 A 129.99 129.99 0 0 1 0 60 Z M 400.7 53.2 L 396.2 45.8 Q 400.1 43.4 403.9 42.25 A 58.176 58.176 0 0 1 406.839 41.439 Q 408.241 41.094 409.493 40.874 A 30.354 30.354 0 0 1 410.6 40.7 L 410.6 36.6 L 392.4 36.6 L 389 30.1 L 389 29.1 L 459.1 29.1 L 462.5 35.6 L 462.5 36.6 L 450.8 36.6 L 451 92.6 L 450 92.6 L 442 87.4 L 442.4 36.6 L 418.3 36.6 L 418.4 41.4 Q 422.2 42.7 424.95 45.4 A 18.592 18.592 0 0 1 428.63 50.419 A 17.563 17.563 0 0 1 429.1 51.45 A 19.392 19.392 0 0 1 430.105 54.514 A 14.437 14.437 0 0 1 430.5 57.8 A 13.191 13.191 0 0 1 429.933 61.729 A 11.394 11.394 0 0 1 428.55 64.65 Q 426.6 67.6 423.55 69.65 Q 420.5 71.7 417.2 72.9 L 433 89 L 427.9 93.2 L 426.9 93.2 L 411.8 74.2 A 22.327 22.327 0 0 1 409.631 74.458 A 18.333 18.333 0 0 1 408.4 74.5 Q 404.9 74.5 402.25 72.95 A 14.115 14.115 0 0 1 399.791 71.149 A 11.358 11.358 0 0 1 398.1 69.2 A 10.293 10.293 0 0 1 397.216 67.645 Q 396.795 66.713 396.662 65.819 A 5.551 5.551 0 0 1 396.6 65 A 3.36 3.36 0 0 1 396.707 64.131 A 2.505 2.505 0 0 1 397.3 63.05 A 1.754 1.754 0 0 1 397.884 62.654 Q 398.468 62.397 399.426 62.327 A 10.591 10.591 0 0 1 400.2 62.3 A 13.063 13.063 0 0 1 403.613 62.772 A 16.676 16.676 0 0 1 405.6 63.45 Q 408.4 64.6 411 66.3 A 17.672 17.672 0 0 0 413.755 65.541 Q 415.226 65.013 416.8 64.2 Q 419.9 62.6 422.1 60.05 A 9.301 9.301 0 0 0 423.715 57.451 A 8.089 8.089 0 0 0 424.3 54.4 Q 424.3 51.6 422.3 49.55 Q 420.3 47.5 416.7 47.5 A 12.483 12.483 0 0 0 415.044 47.623 Q 413.281 47.861 410.878 48.559 A 52.635 52.635 0 0 0 409.75 48.9 A 35.647 35.647 0 0 0 404.271 51.163 A 45.083 45.083 0 0 0 400.7 53.2 Z M 799.2 103.2 L 798.1 107.5 Q 786.1 104.5 778.8 100.2 Q 773.327 96.976 770.074 93.359 A 21.99 21.99 0 0 1 768.15 90.9 A 21.314 21.314 0 0 1 765.86 86.506 A 16.198 16.198 0 0 1 764.8 80.8 Q 764.8 75.7 767.7 71.3 A 23.549 23.549 0 0 1 763.375 66.475 A 27.827 27.827 0 0 1 762.35 64.85 A 16.776 16.776 0 0 1 760.562 60.594 A 14.265 14.265 0 0 1 760.1 57 Q 760.1 51.7 764.45 48.4 A 13.425 13.425 0 0 1 768.216 46.454 Q 772.142 45.1 778.1 45.1 L 791.6 45.1 L 791.6 36.6 L 755.8 36.6 L 752.4 30.1 L 752.4 29.1 L 807.8 29.1 L 811.2 35.6 L 811.2 36.6 L 799.8 36.6 Q 799.8 40.4 799.85 44.55 Q 799.884 47.403 799.895 49.76 A 448.441 448.441 0 0 1 799.9 51.8 L 798.7 52.6 L 779.9 52.6 A 29.7 29.7 0 0 0 776.466 52.786 Q 772.969 53.194 770.7 54.5 Q 767.4 56.4 767.4 60.5 A 8.351 8.351 0 0 0 768.086 63.778 A 10.046 10.046 0 0 0 768.4 64.45 Q 769.4 66.4 770.7 67.7 A 24.466 24.466 0 0 1 777.82 63.235 A 27.673 27.673 0 0 1 778.15 63.1 Q 782.4 61.4 787.1 61.4 A 23.707 23.707 0 0 1 790.647 61.651 Q 793.108 62.024 795.05 62.95 Q 798.3 64.5 800.25 66.9 A 17.715 17.715 0 0 1 802.237 69.899 A 14.932 14.932 0 0 1 803.1 71.9 A 18.585 18.585 0 0 1 803.683 73.93 Q 803.921 74.997 803.98 75.966 A 10.345 10.345 0 0 1 804 76.6 A 11.554 11.554 0 0 1 799.532 85.769 Q 797.746 87.27 795.246 88.506 A 30.832 30.832 0 0 1 793.5 89.3 L 788.8 82.6 A 22.871 22.871 0 0 0 793.355 79.71 A 20.659 20.659 0 0 0 794.55 78.65 A 7.744 7.744 0 0 0 796.998 73.018 A 9.85 9.85 0 0 0 797 72.8 A 6.626 6.626 0 0 0 796.805 71.139 A 4.318 4.318 0 0 0 795 68.55 A 7.089 7.089 0 0 0 792.984 67.633 Q 792.051 67.364 790.933 67.262 A 15.802 15.802 0 0 0 789.5 67.2 A 16.83 16.83 0 0 0 783.868 68.123 A 15.429 15.429 0 0 0 781.05 69.45 A 17.117 17.117 0 0 0 775.786 74.277 A 16.664 16.664 0 0 0 775.15 75.25 A 14.631 14.631 0 0 0 773.215 80.267 A 13.741 13.741 0 0 0 773 82.7 A 11.935 11.935 0 0 0 773.718 86.688 Q 774.285 88.295 775.3 89.95 Q 776.987 92.7 780.529 95.262 A 36.62 36.62 0 0 0 783.35 97.1 A 40.952 40.952 0 0 0 787.817 99.355 Q 792.572 101.428 799.2 103.2 Z M 1207.6 103.2 L 1206.5 107.5 Q 1194.5 104.5 1187.2 100.2 Q 1181.727 96.976 1178.474 93.359 A 21.99 21.99 0 0 1 1176.55 90.9 A 21.314 21.314 0 0 1 1174.26 86.506 A 16.198 16.198 0 0 1 1173.2 80.8 Q 1173.2 75.7 1176.1 71.3 A 23.549 23.549 0 0 1 1171.775 66.475 A 27.827 27.827 0 0 1 1170.75 64.85 A 16.776 16.776 0 0 1 1168.962 60.594 A 14.265 14.265 0 0 1 1168.5 57 Q 1168.5 51.7 1172.85 48.4 A 13.425 13.425 0 0 1 1176.616 46.454 Q 1180.542 45.1 1186.5 45.1 L 1200 45.1 L 1200 36.6 L 1164.2 36.6 L 1160.8 30.1 L 1160.8 29.1 L 1216.2 29.1 L 1219.6 35.6 L 1219.6 36.6 L 1208.2 36.6 Q 1208.2 40.4 1208.25 44.55 Q 1208.284 47.403 1208.295 49.76 A 448.441 448.441 0 0 1 1208.3 51.8 L 1207.1 52.6 L 1188.3 52.6 A 29.7 29.7 0 0 0 1184.866 52.786 Q 1181.369 53.194 1179.1 54.5 Q 1175.8 56.4 1175.8 60.5 A 8.351 8.351 0 0 0 1176.486 63.778 A 10.046 10.046 0 0 0 1176.8 64.45 Q 1177.8 66.4 1179.1 67.7 A 24.466 24.466 0 0 1 1186.22 63.235 A 27.673 27.673 0 0 1 1186.55 63.1 Q 1190.8 61.4 1195.5 61.4 A 23.707 23.707 0 0 1 1199.047 61.651 Q 1201.508 62.024 1203.45 62.95 Q 1206.7 64.5 1208.65 66.9 A 17.715 17.715 0 0 1 1210.637 69.899 A 14.932 14.932 0 0 1 1211.5 71.9 A 18.585 18.585 0 0 1 1212.083 73.93 Q 1212.321 74.997 1212.38 75.966 A 10.345 10.345 0 0 1 1212.4 76.6 A 11.554 11.554 0 0 1 1207.932 85.769 Q 1206.146 87.27 1203.646 88.506 A 30.832 30.832 0 0 1 1201.9 89.3 L 1197.2 82.6 A 22.871 22.871 0 0 0 1201.755 79.71 A 20.659 20.659 0 0 0 1202.95 78.65 A 7.744 7.744 0 0 0 1205.398 73.018 A 9.85 9.85 0 0 0 1205.4 72.8 A 6.626 6.626 0 0 0 1205.205 71.139 A 4.318 4.318 0 0 0 1203.4 68.55 A 7.089 7.089 0 0 0 1201.384 67.633 Q 1200.451 67.364 1199.333 67.262 A 15.802 15.802 0 0 0 1197.9 67.2 A 16.83 16.83 0 0 0 1192.268 68.123 A 15.429 15.429 0 0 0 1189.45 69.45 A 17.117 17.117 0 0 0 1184.186 74.277 A 16.664 16.664 0 0 0 1183.55 75.25 A 14.631 14.631 0 0 0 1181.615 80.267 A 13.741 13.741 0 0 0 1181.4 82.7 A 11.935 11.935 0 0 0 1182.118 86.688 Q 1182.685 88.295 1183.7 89.95 Q 1185.387 92.7 1188.929 95.262 A 36.62 36.62 0 0 0 1191.75 97.1 A 40.952 40.952 0 0 0 1196.217 99.355 Q 1200.972 101.428 1207.6 103.2 Z M 181.1 47.9 L 181.1 49 Q 180.137 49.096 179.684 49.146 A 39.346 39.346 0 0 0 179.65 49.15 A 7.57 7.57 0 0 1 179.228 49.184 Q 178.938 49.2 178.6 49.2 Q 173.9 49.2 171.15 46.25 Q 168.4 43.3 168.4 39.3 A 10.613 10.613 0 0 1 171.716 31.522 A 14.116 14.116 0 0 1 172.05 31.2 Q 175.7 27.8 181.6 27.8 A 16.381 16.381 0 0 1 187.492 28.84 A 15.216 15.216 0 0 1 190.8 30.6 Q 194.8 33.4 197.1 37.55 A 19.54 19.54 0 0 1 198.748 41.4 A 14.906 14.906 0 0 1 199.4 45.7 A 12.431 12.431 0 0 1 198.938 49.159 A 10.094 10.094 0 0 1 197.15 52.65 A 16.105 16.105 0 0 1 194.166 55.528 Q 192.735 56.604 190.957 57.521 A 26.733 26.733 0 0 1 190.9 57.55 Q 186.9 59.6 181.7 61.5 A 9.44 9.44 0 0 0 182.122 64.371 A 8.103 8.103 0 0 0 183.3 66.7 A 10.729 10.729 0 0 0 187.023 69.886 A 12.778 12.778 0 0 0 187.55 70.15 Q 190.2 71.4 193.1 71.4 A 16.917 16.917 0 0 0 198.431 70.501 A 23.186 23.186 0 0 0 202.2 68.85 Q 206.9 66.3 210.7 62.5 L 210.9 36.6 L 203.7 36.6 L 200.3 30.1 L 200.3 29.1 L 227.6 29.1 L 231 35.6 L 231 36.6 L 219.3 36.6 L 219.5 92.1 L 218.5 92.1 L 210.5 86.9 L 210.6 72.8 A 36.721 36.721 0 0 1 207.834 74.661 Q 205.6 76.013 203.6 76.7 Q 200.4 77.8 196.9 77.8 Q 190.9 77.8 185.9 74.75 A 27.027 27.027 0 0 1 177.667 66.87 A 31.078 31.078 0 0 1 177.45 66.55 Q 174 61.4 172.7 55.3 Q 179.001 53.5 183.48 51.484 A 41.045 41.045 0 0 0 187.1 49.65 A 12.24 12.24 0 0 0 189.98 47.415 A 8.926 8.926 0 0 0 192.4 41.1 A 9.038 9.038 0 0 0 192.242 39.346 Q 192.046 38.358 191.608 37.612 A 4.146 4.146 0 0 0 190.4 36.3 A 7.701 7.701 0 0 0 186.991 34.993 A 10.084 10.084 0 0 0 185.6 34.9 A 11.353 11.353 0 0 0 181.767 35.583 A 13.205 13.205 0 0 0 181.2 35.8 A 10.238 10.238 0 0 0 178.978 37.034 A 8.682 8.682 0 0 0 177.6 38.3 Q 176.2 39.9 176.2 42.1 A 5.211 5.211 0 0 0 176.429 43.681 A 4.162 4.162 0 0 0 177.7 45.6 A 17.478 17.478 0 0 0 180.402 47.514 A 19.855 19.855 0 0 0 181.1 47.9 Z M 631.7 88.6 L 627.4 92.1 L 626.4 92.1 Q 620.687 84.697 616.527 78.459 A 158.897 158.897 0 0 1 614.6 75.5 A 36.802 36.802 0 0 1 611.924 70.531 Q 609.9 65.9 609.9 61.7 A 14.889 14.889 0 0 1 610.504 57.327 A 10.874 10.874 0 0 1 615.65 50.95 Q 621.4 47.6 630.9 47.6 L 645 47.6 L 645.1 36.6 L 605.7 36.6 L 602.3 30.1 L 602.3 29.1 L 661.8 29.1 L 665.2 35.6 L 665.2 36.6 L 653.5 36.6 L 653.7 92.1 L 652.7 92.1 L 644.7 86.9 L 644.9 55.1 L 632 55.1 A 26.051 26.051 0 0 0 627.998 55.386 Q 625.958 55.704 624.326 56.375 A 10.645 10.645 0 0 0 621.15 58.35 A 10.92 10.92 0 0 0 618.46 62.025 A 10.532 10.532 0 0 0 617.6 66.3 Q 617.6 68.5 618.25 70.5 Q 618.9 72.5 620.45 74.9 Q 622 77.3 624.75 80.55 Q 627.434 83.721 631.498 88.369 A 1131.44 1131.44 0 0 0 631.7 88.6 Z M 861.7 88.6 L 857.4 92.1 L 856.4 92.1 Q 850.687 84.697 846.527 78.459 A 158.897 158.897 0 0 1 844.6 75.5 A 36.802 36.802 0 0 1 841.924 70.531 Q 839.9 65.9 839.9 61.7 A 14.889 14.889 0 0 1 840.504 57.327 A 10.874 10.874 0 0 1 845.65 50.95 Q 851.4 47.6 860.9 47.6 L 875 47.6 L 875.1 36.6 L 835.7 36.6 L 832.3 30.1 L 832.3 29.1 L 891.8 29.1 L 895.2 35.6 L 895.2 36.6 L 883.5 36.6 L 883.7 92.1 L 882.7 92.1 L 874.7 86.9 L 874.9 55.1 L 862 55.1 A 26.051 26.051 0 0 0 857.998 55.386 Q 855.958 55.704 854.326 56.375 A 10.645 10.645 0 0 0 851.15 58.35 A 10.92 10.92 0 0 0 848.46 62.025 A 10.532 10.532 0 0 0 847.6 66.3 Q 847.6 68.5 848.25 70.5 Q 848.9 72.5 850.45 74.9 Q 852 77.3 854.75 80.55 Q 857.434 83.721 861.498 88.369 A 1131.44 1131.44 0 0 0 861.7 88.6 Z M 393 97.6 L 387.8 100.9 L 386.9 100.9 L 377.7 84.8 Q 374.9 85.6 371.4 85.6 Q 366.2 85.6 361.4 83.45 Q 356.6 81.3 352.8 77.6 Q 349 73.9 346.8 69.25 Q 344.6 64.6 344.6 59.5 A 16.416 16.416 0 0 1 344.899 56.266 Q 345.49 53.326 347.25 51.4 A 12.529 12.529 0 0 1 351.12 48.573 A 17.722 17.722 0 0 1 354.6 47.35 A 37.255 37.255 0 0 1 359.019 46.564 Q 361.297 46.291 363.86 46.223 A 65.409 65.409 0 0 1 365.6 46.2 L 373.1 46.2 L 373.1 36.6 L 339.7 36.6 L 336.3 30.1 L 336.3 29.1 L 391.2 29.1 L 394.6 35.6 L 394.6 36.6 L 381.3 36.6 A 766.226 766.226 0 0 0 381.344 44.695 A 835.486 835.486 0 0 0 381.35 45.25 Q 381.384 48.309 381.395 50.778 A 488.873 488.873 0 0 1 381.4 52.9 L 380.2 53.7 L 366.1 53.7 A 26.602 26.602 0 0 0 362.018 53.994 Q 358.397 54.557 355.9 56.2 A 8.111 8.111 0 0 0 352.212 62.124 A 12.058 12.058 0 0 0 352.1 63.8 A 18.053 18.053 0 0 0 352.492 67.654 A 13.478 13.478 0 0 0 354.15 71.85 A 14.605 14.605 0 0 0 357.292 75.522 A 13.346 13.346 0 0 0 359.4 76.95 Q 362.6 78.7 366.1 78.7 A 21.108 21.108 0 0 0 368.417 78.567 A 26.247 26.247 0 0 0 369.95 78.35 Q 372 78 373.5 77.1 Q 372.38 74.859 371.652 72.967 A 33.3 33.3 0 0 1 371.55 72.7 Q 371.032 71.319 370.872 70.224 A 6.395 6.395 0 0 1 370.8 69.3 A 4.784 4.784 0 0 1 370.879 68.397 Q 370.976 67.894 371.191 67.509 A 2.194 2.194 0 0 1 371.75 66.85 A 3.291 3.291 0 0 1 372.943 66.265 Q 373.417 66.136 373.979 66.108 A 6.415 6.415 0 0 1 374.3 66.1 A 9.701 9.701 0 0 1 376.418 66.349 Q 377.4 66.569 378.465 66.983 A 18.834 18.834 0 0 1 379.45 67.4 A 18.046 18.046 0 0 1 384.315 70.623 A 17.203 17.203 0 0 1 384.45 70.75 A 8.175 8.175 0 0 1 385.674 72.201 A 5.416 5.416 0 0 1 386.6 75.2 A 4.02 4.02 0 0 1 386.531 75.895 Q 386.4 76.629 386.024 77.664 A 22.731 22.731 0 0 1 385.7 78.5 A 7.801 7.801 0 0 1 384.456 80.529 Q 383.561 81.605 382.2 82.6 L 393 97.6 Z M 1046 88.9 L 1040.9 93.1 L 1039.9 93.1 L 1022.2 71.5 Q 1018.506 66.901 1016.631 63.979 A 26.911 26.911 0 0 1 1015.6 62.25 Q 1013.922 59.141 1013.9 56.958 A 5.745 5.745 0 0 1 1013.9 56.9 Q 1013.9 53.844 1018.55 53.707 A 15.184 15.184 0 0 1 1019 53.7 Q 1020.148 53.7 1021.971 53.817 A 106.79 106.79 0 0 1 1023.15 53.9 Q 1025.8 54.1 1027.6 54.3 Q 1028.034 52.132 1028.204 49.4 A 52.668 52.668 0 0 0 1028.25 48.55 A 164.28 164.28 0 0 0 1028.341 46.232 Q 1028.371 45.316 1028.385 44.483 A 90.22 90.22 0 0 0 1028.4 42.9 Q 1028.4 40.7 1028.35 39.25 Q 1028.3 37.8 1028.2 36.6 L 1009.9 36.6 L 1006.5 30.1 L 1006.5 29.1 L 1076.6 29.1 L 1080 35.6 L 1080 36.6 L 1068.3 36.6 L 1068.5 92.1 L 1067.5 92.1 L 1059.5 86.9 L 1059.6 67.2 Q 1055.5 68.7 1051 68.7 Q 1048.2 68.7 1043.8 67.55 A 17.639 17.639 0 0 1 1040.621 66.352 Q 1037.441 64.819 1033.7 61.8 A 10.306 10.306 0 0 1 1028.728 66.303 A 16.047 16.047 0 0 1 1025.2 67.4 L 1046 88.9 Z M 154.1 36.6 L 154.3 92.6 L 153.3 92.6 L 145.3 87.4 L 145.7 36.6 L 136.9 36.6 L 133.5 30.1 L 133.5 29.1 L 146.2 29.1 A 23.62 23.62 0 0 1 144.501 25.987 A 18.843 18.843 0 0 1 143.6 23.55 Q 142.8 20.8 142.8 18.2 Q 142.8 14.2 144.85 10.8 A 13.379 13.379 0 0 1 148.238 7.079 A 18.446 18.446 0 0 1 151.2 5.25 Q 154.848 3.426 160.08 3.149 A 36.39 36.39 0 0 1 162 3.1 A 36.573 36.573 0 0 1 171.72 4.453 A 42.521 42.521 0 0 1 174 5.15 Q 179.492 6.996 185.633 10.909 A 78.946 78.946 0 0 1 187 11.8 A 96.3 96.3 0 0 1 193.267 16.38 Q 196.4 18.856 199.746 21.848 A 175.749 175.749 0 0 1 202 23.9 L 199.3 27 Q 194 22.5 188.4 18.85 A 59.82 59.82 0 0 0 178.59 13.647 A 54.589 54.589 0 0 0 176.95 13 Q 171.1 10.8 165.1 10.8 A 26.307 26.307 0 0 0 161.542 11.026 Q 159.724 11.275 158.21 11.797 A 12.842 12.842 0 0 0 156.45 12.55 A 13.947 13.947 0 0 0 153.993 14.162 A 9.984 9.984 0 0 0 151.6 17 Q 150.1 19.7 150.1 22.8 Q 150.1 24.5 150.55 26 A 18.059 18.059 0 0 0 151.249 27.914 A 22.083 22.083 0 0 0 151.8 29.1 L 162.4 29.1 L 165.8 35.6 L 165.8 36.6 L 154.1 36.6 Z M 680.2 36.6 L 680.4 92.6 L 679.4 92.6 L 671.4 87.4 L 671.8 36.6 L 663 36.6 L 659.6 30.1 L 659.6 29.1 L 672.3 29.1 A 23.62 23.62 0 0 1 670.601 25.987 A 18.843 18.843 0 0 1 669.7 23.55 Q 668.9 20.8 668.9 18.2 Q 668.9 14.2 670.95 10.8 A 13.379 13.379 0 0 1 674.338 7.079 A 18.446 18.446 0 0 1 677.3 5.25 Q 680.948 3.426 686.18 3.149 A 36.39 36.39 0 0 1 688.1 3.1 A 36.573 36.573 0 0 1 697.82 4.453 A 42.521 42.521 0 0 1 700.1 5.15 Q 705.592 6.996 711.733 10.909 A 78.946 78.946 0 0 1 713.1 11.8 A 96.3 96.3 0 0 1 719.367 16.38 Q 722.5 18.856 725.846 21.848 A 175.749 175.749 0 0 1 728.1 23.9 L 725.4 27 Q 720.1 22.5 714.5 18.85 A 59.82 59.82 0 0 0 704.69 13.647 A 54.589 54.589 0 0 0 703.05 13 Q 697.2 10.8 691.2 10.8 A 26.307 26.307 0 0 0 687.642 11.026 Q 685.824 11.275 684.31 11.797 A 12.842 12.842 0 0 0 682.55 12.55 A 13.947 13.947 0 0 0 680.093 14.162 A 9.984 9.984 0 0 0 677.7 17 Q 676.2 19.7 676.2 22.8 Q 676.2 24.5 676.65 26 A 18.059 18.059 0 0 0 677.349 27.914 A 22.083 22.083 0 0 0 677.9 29.1 L 688.5 29.1 L 691.9 35.6 L 691.9 36.6 L 680.2 36.6 Z M 826.2 36.6 L 826.4 92.6 L 825.4 92.6 L 817.4 87.4 L 817.8 36.6 L 809 36.6 L 805.6 30.1 L 805.6 29.1 L 818.3 29.1 A 23.62 23.62 0 0 1 816.601 25.987 A 18.843 18.843 0 0 1 815.7 23.55 Q 814.9 20.8 814.9 18.2 Q 814.9 14.2 816.95 10.8 A 13.379 13.379 0 0 1 820.338 7.079 A 18.446 18.446 0 0 1 823.3 5.25 Q 826.948 3.426 832.18 3.149 A 36.39 36.39 0 0 1 834.1 3.1 A 36.573 36.573 0 0 1 843.82 4.453 A 42.521 42.521 0 0 1 846.1 5.15 Q 851.592 6.996 857.733 10.909 A 78.946 78.946 0 0 1 859.1 11.8 A 96.3 96.3 0 0 1 865.367 16.38 Q 868.5 18.856 871.846 21.848 A 175.749 175.749 0 0 1 874.1 23.9 L 871.4 27 Q 866.1 22.5 860.5 18.85 A 59.82 59.82 0 0 0 850.69 13.647 A 54.589 54.589 0 0 0 849.05 13 Q 843.2 10.8 837.2 10.8 A 26.307 26.307 0 0 0 833.642 11.026 Q 831.824 11.275 830.31 11.797 A 12.842 12.842 0 0 0 828.55 12.55 A 13.947 13.947 0 0 0 826.093 14.162 A 9.984 9.984 0 0 0 823.7 17 Q 822.2 19.7 822.2 22.8 Q 822.2 24.5 822.65 26 A 18.059 18.059 0 0 0 823.349 27.914 A 22.083 22.083 0 0 0 823.9 29.1 L 834.5 29.1 L 837.9 35.6 L 837.9 36.6 L 826.2 36.6 Z M 1119.4 54.3 L 1119.6 36.6 L 1077.8 36.6 L 1074.4 30.1 L 1074.4 29.1 L 1136.3 29.1 L 1139.7 35.6 L 1139.7 36.6 L 1128 36.6 L 1128.2 92.1 L 1127.2 92.1 L 1119.2 86.9 L 1119.3 71 Q 1116.62 72.761 1114.468 74.053 A 84.78 84.78 0 0 1 1113.2 74.8 Q 1110.6 76.3 1108.05 77.05 A 18.024 18.024 0 0 1 1104.987 77.655 A 23.923 23.923 0 0 1 1102.3 77.8 A 25.397 25.397 0 0 1 1097.729 77.408 A 18.858 18.858 0 0 1 1093.2 76 A 21.173 21.173 0 0 1 1088.524 73.085 A 18.769 18.769 0 0 1 1086.65 71.3 A 22.059 22.059 0 0 1 1083.732 67.321 A 19.242 19.242 0 0 1 1082.65 65.1 A 19.6 19.6 0 0 1 1081.692 62.143 A 14.246 14.246 0 0 1 1081.3 58.9 Q 1081.3 54.7 1083.85 51.4 Q 1086.4 48.1 1090.6 46.25 A 22.139 22.139 0 0 1 1099.014 44.409 A 25.576 25.576 0 0 1 1099.7 44.4 Q 1105.7 44.4 1110.7 47.2 Q 1115.7 50 1119.4 54.3 Z M 758 35.6 L 758 36.6 L 746.3 36.6 L 746.5 92.6 L 745.5 92.6 L 737.5 87.4 L 737.9 36.6 L 729.1 36.6 L 725.7 30.1 L 725.7 29.1 L 739 29.1 A 290.795 290.795 0 0 0 736.931 25.594 Q 734.369 21.324 732.347 18.342 A 85.645 85.645 0 0 0 731.7 17.4 A 54.428 54.428 0 0 0 729.811 14.962 Q 727.965 12.723 726.409 11.448 A 13.005 13.005 0 0 0 725.9 11.05 A 9.722 9.722 0 0 0 723.346 9.67 A 8.212 8.212 0 0 0 720.6 9.2 Q 719.375 9.2 717.417 9.376 A 83.458 83.458 0 0 0 716.15 9.5 Q 713.3 9.8 711 10.3 L 706.4 1.8 L 706.5 1.1 A 88.823 88.823 0 0 1 709.27 0.645 Q 711.45 0.325 713.2 0.2 A 194.586 194.586 0 0 1 714.334 0.122 Q 716.197 0 716.9 0 A 13.577 13.577 0 0 1 724.442 2.319 A 18.255 18.255 0 0 1 726.4 3.8 A 37.964 37.964 0 0 1 729.992 7.383 Q 731.639 9.245 733.301 11.521 A 76.071 76.071 0 0 1 735.3 14.4 A 305.482 305.482 0 0 1 739.391 20.817 Q 741.797 24.691 744.4 29.1 L 754.6 29.1 L 758 35.6 Z M 82.9 60.1 L 88.3 60.1 L 88.4 36.6 L 75.7 36.6 L 72.3 30.1 L 72.3 29.1 L 135.7 29.1 L 139.1 35.6 L 139.1 36.6 L 127.4 36.6 L 127.6 92.1 L 126.6 92.1 L 118.6 86.9 L 118.7 67.6 L 96.8 67.6 L 96.8 74.8 A 3.94 3.94 0 0 1 96.694 75.759 Q 96.306 77.3 94.5 77.3 A 3.906 3.906 0 0 1 93.452 77.141 Q 92.465 76.864 91.214 76.107 A 17.3 17.3 0 0 1 90.65 75.75 A 25.808 25.808 0 0 1 88.006 73.737 A 33.702 33.702 0 0 1 85.95 71.8 A 31.217 31.217 0 0 1 83.131 68.507 A 26.558 26.558 0 0 1 82 66.85 A 14.454 14.454 0 0 1 81.174 65.356 Q 80.811 64.59 80.618 63.892 A 5.615 5.615 0 0 1 80.4 62.4 Q 80.4 61.5 81 60.8 A 1.848 1.848 0 0 1 81.82 60.259 Q 82.122 60.155 82.493 60.119 A 4.231 4.231 0 0 1 82.9 60.1 Z M 525.7 60.1 L 531.1 60.1 L 531.2 36.6 L 518.5 36.6 L 515.1 30.1 L 515.1 29.1 L 578.5 29.1 L 581.9 35.6 L 581.9 36.6 L 570.2 36.6 L 570.4 92.1 L 569.4 92.1 L 561.4 86.9 L 561.5 67.6 L 539.6 67.6 L 539.6 74.8 A 3.94 3.94 0 0 1 539.494 75.759 Q 539.106 77.3 537.3 77.3 A 3.906 3.906 0 0 1 536.252 77.141 Q 535.265 76.864 534.014 76.107 A 17.3 17.3 0 0 1 533.45 75.75 A 25.808 25.808 0 0 1 530.806 73.737 A 33.702 33.702 0 0 1 528.75 71.8 A 31.217 31.217 0 0 1 525.931 68.507 A 26.558 26.558 0 0 1 524.8 66.85 A 14.454 14.454 0 0 1 523.974 65.356 Q 523.611 64.59 523.418 63.892 A 5.615 5.615 0 0 1 523.2 62.4 Q 523.2 61.5 523.8 60.8 A 1.848 1.848 0 0 1 524.62 60.259 Q 524.922 60.155 525.293 60.119 A 4.231 4.231 0 0 1 525.7 60.1 Z M 900.2 60.1 L 905.6 60.1 L 905.7 36.6 L 893 36.6 L 889.6 30.1 L 889.6 29.1 L 953 29.1 L 956.4 35.6 L 956.4 36.6 L 944.7 36.6 L 944.9 92.1 L 943.9 92.1 L 935.9 86.9 L 936 67.6 L 914.1 67.6 L 914.1 74.8 A 3.94 3.94 0 0 1 913.994 75.759 Q 913.606 77.3 911.8 77.3 A 3.906 3.906 0 0 1 910.752 77.141 Q 909.765 76.864 908.514 76.107 A 17.3 17.3 0 0 1 907.95 75.75 A 25.808 25.808 0 0 1 905.306 73.737 A 33.702 33.702 0 0 1 903.25 71.8 A 31.217 31.217 0 0 1 900.431 68.507 A 26.558 26.558 0 0 1 899.3 66.85 A 14.454 14.454 0 0 1 898.474 65.356 Q 898.111 64.59 897.918 63.892 A 5.615 5.615 0 0 1 897.7 62.4 Q 897.7 61.5 898.3 60.8 A 1.848 1.848 0 0 1 899.12 60.259 Q 899.422 60.155 899.793 60.119 A 4.231 4.231 0 0 1 900.2 60.1 Z M 244.4 36.6 L 228.8 36.6 L 225.4 30.1 L 225.4 29.1 L 285.8 29.1 L 289.2 35.6 L 289.2 36.6 L 277.5 36.6 L 277.7 92.1 L 276.7 92.1 L 268.7 86.9 L 268.8 73.9 A 22.532 22.532 0 0 1 265.519 75.729 A 17.987 17.987 0 0 1 262.8 76.7 Q 259.8 77.5 257.1 77.5 Q 251.2 77.5 245.95 74.35 Q 240.7 71.2 237.05 65.9 Q 233.4 60.6 232.2 54 A 78.602 78.602 0 0 0 236.259 52.904 Q 240.142 51.734 242.603 50.444 A 17.325 17.325 0 0 0 243.65 49.85 Q 247.3 47.6 247.3 44.2 A 6.839 6.839 0 0 0 247.223 43.224 Q 247.077 42.213 246.65 40.9 A 13.131 13.131 0 0 0 245.899 39.093 Q 245.452 38.198 244.838 37.251 A 24.283 24.283 0 0 0 244.4 36.6 Z M 475.9 36.6 L 460.3 36.6 L 456.9 30.1 L 456.9 29.1 L 517.3 29.1 L 520.7 35.6 L 520.7 36.6 L 509 36.6 L 509.2 92.1 L 508.2 92.1 L 500.2 86.9 L 500.3 73.9 A 22.532 22.532 0 0 1 497.019 75.729 A 17.987 17.987 0 0 1 494.3 76.7 Q 491.3 77.5 488.6 77.5 Q 482.7 77.5 477.45 74.35 Q 472.2 71.2 468.55 65.9 Q 464.9 60.6 463.7 54 A 78.602 78.602 0 0 0 467.759 52.904 Q 471.642 51.734 474.103 50.444 A 17.325 17.325 0 0 0 475.15 49.85 Q 478.8 47.6 478.8 44.2 A 6.839 6.839 0 0 0 478.723 43.224 Q 478.577 42.213 478.15 40.9 A 13.131 13.131 0 0 0 477.399 39.093 Q 476.952 38.198 476.338 37.251 A 24.283 24.283 0 0 0 475.9 36.6 Z M 726.4 88.9 L 721.3 93.1 L 720.3 93.1 L 700.5 68.8 Q 697.45 65.091 695.861 62.503 A 23.252 23.252 0 0 1 695.25 61.45 A 20.612 20.612 0 0 1 694.518 59.977 Q 693.878 58.535 693.739 57.465 A 4.391 4.391 0 0 1 693.7 56.9 Q 693.7 53.844 698.35 53.707 A 15.184 15.184 0 0 1 698.8 53.7 Q 700.3 53.7 702.9 53.9 Q 705.5 54.1 707.3 54.3 Q 707.734 52.132 707.904 49.4 A 52.668 52.668 0 0 0 707.95 48.55 A 164.28 164.28 0 0 0 708.041 46.232 Q 708.071 45.316 708.085 44.483 A 90.22 90.22 0 0 0 708.1 42.9 A 149.429 149.429 0 0 0 708.093 41.409 Q 708.087 40.823 708.076 40.296 A 77.124 77.124 0 0 0 708.05 39.3 A 64.606 64.606 0 0 0 707.989 37.896 Q 707.951 37.209 707.9 36.6 L 689.7 36.6 L 686.3 30.1 L 686.3 29.1 L 727.9 29.1 L 731.3 35.6 L 731.3 36.6 L 716.2 36.6 Q 716.3 38.5 716.4 40.8 A 214.24 214.24 0 0 1 716.443 41.847 Q 716.5 43.321 716.5 44 A 91.656 91.656 0 0 1 716.383 48.793 Q 716.142 53.374 715.407 56.555 A 25.659 25.659 0 0 1 715.3 57 A 22.173 22.173 0 0 1 714.353 59.954 Q 713.748 61.446 712.968 62.603 A 10.216 10.216 0 0 1 711.65 64.2 A 12.078 12.078 0 0 1 706.265 67.236 A 14.59 14.59 0 0 1 705.6 67.4 L 726.4 88.9 Z M 315.9 35.6 L 315.9 36.6 L 304.2 36.6 L 304.4 92.6 L 303.4 92.6 L 295.4 87.4 L 295.8 36.6 L 287 36.6 L 283.6 30.1 L 283.6 29.1 L 312.5 29.1 L 315.9 35.6 Z M 1166.4 35.6 L 1166.4 36.6 L 1154.7 36.6 L 1154.9 92.6 L 1153.9 92.6 L 1145.9 87.4 L 1146.3 36.6 L 1137.5 36.6 L 1134.1 30.1 L 1134.1 29.1 L 1163 29.1 L 1166.4 35.6 Z M 1246.3 35.6 L 1246.3 36.6 L 1234.6 36.6 L 1234.8 92.6 L 1233.8 92.6 L 1225.8 87.4 L 1226.2 36.6 L 1217.4 36.6 L 1214 30.1 L 1214 29.1 L 1242.9 29.1 L 1246.3 35.6 Z M 268.9 64.1 L 269.1 36.6 L 249.9 36.6 A 41.808 41.808 0 0 1 252.124 40.371 Q 254.242 44.479 254.472 47.724 A 10.995 10.995 0 0 1 254.5 48.5 A 8.53 8.53 0 0 1 252.299 54.224 A 11.931 11.931 0 0 1 251.35 55.2 Q 248.498 57.826 242.242 59.714 A 54.314 54.314 0 0 1 240.9 60.1 Q 241 63.1 242.65 65.65 Q 244.3 68.2 247.05 69.7 A 12.4 12.4 0 0 0 252.347 71.176 A 14.879 14.879 0 0 0 253.2 71.2 A 15.679 15.679 0 0 0 256.954 70.72 Q 258.564 70.323 260.272 69.598 A 26.333 26.333 0 0 0 260.5 69.5 Q 263.695 68.107 267.294 65.372 A 53.771 53.771 0 0 0 268.9 64.1 Z M 500.4 64.1 L 500.6 36.6 L 481.4 36.6 A 41.808 41.808 0 0 1 483.624 40.371 Q 485.742 44.479 485.972 47.724 A 10.995 10.995 0 0 1 486 48.5 A 8.53 8.53 0 0 1 483.799 54.224 A 11.931 11.931 0 0 1 482.85 55.2 Q 479.998 57.826 473.742 59.714 A 54.314 54.314 0 0 1 472.4 60.1 Q 472.5 63.1 474.15 65.65 Q 475.8 68.2 478.55 69.7 A 12.4 12.4 0 0 0 483.847 71.176 A 14.879 14.879 0 0 0 484.7 71.2 A 15.679 15.679 0 0 0 488.454 70.72 Q 490.064 70.323 491.772 69.598 A 26.333 26.333 0 0 0 492 69.5 Q 495.195 68.107 498.794 65.372 A 53.771 53.771 0 0 0 500.4 64.1 Z M 389.4 108.1 L 394.2 114.3 A 17.352 17.352 0 0 1 393.154 114.898 Q 391.987 115.518 390.26 116.274 A 81.448 81.448 0 0 1 389.15 116.75 A 17.804 17.804 0 0 1 385.196 117.871 Q 383.377 118.177 381.314 118.198 A 30.066 30.066 0 0 1 381 118.2 A 23.484 23.484 0 0 1 376.985 117.876 Q 374.74 117.486 372.915 116.627 A 12.845 12.845 0 0 1 371.5 115.85 A 17.85 17.85 0 0 1 368.361 113.351 A 14.016 14.016 0 0 1 366 110.2 A 18.506 18.506 0 0 1 364.975 108.014 Q 364.539 106.885 364.348 105.851 A 8.545 8.545 0 0 1 364.2 104.3 Q 364.2 101.1 366.35 98.7 A 14.091 14.091 0 0 1 369.397 96.167 A 18.747 18.747 0 0 1 372.05 94.8 Q 375.6 93.3 379.7 93 L 384.3 99 L 384.3 99.6 A 41.932 41.932 0 0 0 381.265 99.938 Q 378.162 100.406 376.1 101.3 A 16.966 16.966 0 0 0 374.396 102.147 Q 373.579 102.616 372.956 103.124 A 6.65 6.65 0 0 0 371.85 104.25 Q 370.6 105.9 370.6 107.4 A 3.313 3.313 0 0 0 370.897 108.734 Q 371.233 109.503 371.95 110.3 A 3.514 3.514 0 0 0 373.156 111.139 Q 374.312 111.652 376.173 111.767 A 18.361 18.361 0 0 0 377.3 111.8 A 18.167 18.167 0 0 0 380.083 111.574 A 24.639 24.639 0 0 0 382.75 111 A 21.805 21.805 0 0 0 385.271 110.135 Q 387.203 109.347 389.4 108.1 Z M 210.3 103.1 L 206.6 95.2 L 206.8 94.6 A 37.949 37.949 0 0 1 209.668 94.169 Q 211.025 94.021 212.252 94.003 A 23.056 23.056 0 0 1 212.6 94 Q 215.9 94 219 95.25 A 23.771 23.771 0 0 1 222.681 97.14 A 30.358 30.358 0 0 1 225.2 98.9 Q 226.397 99.821 229.12 102.183 A 315.282 315.282 0 0 1 229.6 102.6 Q 232.494 105.121 236.086 108.339 A 879.261 879.261 0 0 1 236.6 108.8 Q 240.5 112.3 244.2 115.9 L 240.8 119.7 L 240.1 119.7 Q 235.539 114.569 232.332 111.244 A 147.475 147.475 0 0 0 232 110.9 A 85.089 85.089 0 0 0 229.838 108.746 Q 227.875 106.864 226.3 105.65 A 18.838 18.838 0 0 0 224.265 104.272 Q 223.183 103.644 222.133 103.263 A 10.903 10.903 0 0 0 221.65 103.1 A 15.471 15.471 0 0 0 218.503 102.483 A 19.157 19.157 0 0 0 216.7 102.4 Q 214.3 102.4 212.7 102.7 Q 211.55 102.916 210.814 103.028 A 19.499 19.499 0 0 1 210.3 103.1 Z M 441.8 103.1 L 438.1 95.2 L 438.3 94.6 A 37.949 37.949 0 0 1 441.168 94.169 Q 442.525 94.021 443.752 94.003 A 23.056 23.056 0 0 1 444.1 94 Q 447.4 94 450.5 95.25 A 23.771 23.771 0 0 1 454.181 97.14 A 30.358 30.358 0 0 1 456.7 98.9 Q 457.897 99.821 460.62 102.183 A 315.282 315.282 0 0 1 461.1 102.6 Q 463.994 105.121 467.586 108.339 A 879.261 879.261 0 0 1 468.1 108.8 Q 472 112.3 475.7 115.9 L 472.3 119.7 L 471.6 119.7 Q 467.039 114.569 463.832 111.244 A 147.475 147.475 0 0 0 463.5 110.9 A 85.089 85.089 0 0 0 461.338 108.746 Q 459.375 106.864 457.8 105.65 A 18.838 18.838 0 0 0 455.765 104.272 Q 454.683 103.644 453.633 103.263 A 10.903 10.903 0 0 0 453.15 103.1 A 15.471 15.471 0 0 0 450.003 102.483 A 19.157 19.157 0 0 0 448.2 102.4 Q 445.8 102.4 444.2 102.7 Q 443.05 102.916 442.314 103.028 A 19.499 19.499 0 0 1 441.8 103.1 Z M 561.2 103.1 L 557.5 95.2 L 557.7 94.6 A 37.949 37.949 0 0 1 560.568 94.169 Q 561.925 94.021 563.152 94.003 A 23.056 23.056 0 0 1 563.5 94 Q 566.8 94 569.9 95.25 A 23.771 23.771 0 0 1 573.581 97.14 A 30.358 30.358 0 0 1 576.1 98.9 Q 577.297 99.821 580.02 102.183 A 315.282 315.282 0 0 1 580.5 102.6 Q 583.394 105.121 586.986 108.339 A 879.261 879.261 0 0 1 587.5 108.8 Q 591.4 112.3 595.1 115.9 L 591.7 119.7 L 591 119.7 Q 586.439 114.569 583.232 111.244 A 147.475 147.475 0 0 0 582.9 110.9 A 85.089 85.089 0 0 0 580.738 108.746 Q 578.775 106.864 577.2 105.65 A 18.838 18.838 0 0 0 575.165 104.272 Q 574.083 103.644 573.033 103.263 A 10.903 10.903 0 0 0 572.55 103.1 A 15.471 15.471 0 0 0 569.403 102.483 A 19.157 19.157 0 0 0 567.6 102.4 Q 565.2 102.4 563.6 102.7 Q 562.45 102.916 561.714 103.028 A 19.499 19.499 0 0 1 561.2 103.1 Z M 935.7 103.1 L 932 95.2 L 932.2 94.6 A 37.949 37.949 0 0 1 935.068 94.169 Q 936.425 94.021 937.652 94.003 A 23.056 23.056 0 0 1 938 94 Q 941.3 94 944.4 95.25 A 23.771 23.771 0 0 1 948.081 97.14 A 30.358 30.358 0 0 1 950.6 98.9 Q 951.797 99.821 954.52 102.183 A 315.282 315.282 0 0 1 955 102.6 Q 957.894 105.121 961.486 108.339 A 879.261 879.261 0 0 1 962 108.8 Q 965.9 112.3 969.6 115.9 L 966.2 119.7 L 965.5 119.7 Q 960.939 114.569 957.732 111.244 A 147.475 147.475 0 0 0 957.4 110.9 A 85.089 85.089 0 0 0 955.238 108.746 Q 953.275 106.864 951.7 105.65 A 18.838 18.838 0 0 0 949.665 104.272 Q 948.583 103.644 947.533 103.263 A 10.903 10.903 0 0 0 947.05 103.1 A 15.471 15.471 0 0 0 943.903 102.483 A 19.157 19.157 0 0 0 942.1 102.4 Q 939.7 102.4 938.1 102.7 Q 936.95 102.916 936.214 103.028 A 19.499 19.499 0 0 1 935.7 103.1 Z M 1059.3 103.1 L 1055.6 95.2 L 1055.8 94.6 A 37.949 37.949 0 0 1 1058.668 94.169 Q 1060.025 94.021 1061.252 94.003 A 23.056 23.056 0 0 1 1061.6 94 Q 1064.9 94 1068 95.25 A 23.771 23.771 0 0 1 1071.681 97.14 A 30.358 30.358 0 0 1 1074.2 98.9 Q 1075.397 99.821 1078.12 102.183 A 315.282 315.282 0 0 1 1078.6 102.6 Q 1081.494 105.121 1085.086 108.339 A 879.261 879.261 0 0 1 1085.6 108.8 Q 1089.5 112.3 1093.2 115.9 L 1089.8 119.7 L 1089.1 119.7 Q 1084.539 114.569 1081.332 111.244 A 147.475 147.475 0 0 0 1081 110.9 A 85.089 85.089 0 0 0 1078.838 108.746 Q 1076.875 106.864 1075.3 105.65 A 18.838 18.838 0 0 0 1073.265 104.272 Q 1072.183 103.644 1071.133 103.263 A 10.903 10.903 0 0 0 1070.65 103.1 A 15.471 15.471 0 0 0 1067.503 102.483 A 19.157 19.157 0 0 0 1065.7 102.4 Q 1063.3 102.4 1061.7 102.7 Q 1060.55 102.916 1059.814 103.028 A 19.499 19.499 0 0 1 1059.3 103.1 Z M 962.6 110 L 960.9 107.1 Q 965.8 104.4 968.5 100.8 Q 971.2 97.2 971.2 92.8 Q 971.2 92.1 971.05 91 A 6.056 6.056 0 0 0 970.609 89.436 A 7.398 7.398 0 0 0 970.3 88.8 Q 968.6 90.1 966.5 90.1 A 5.611 5.611 0 0 1 963.043 88.903 A 7.464 7.464 0 0 1 962.5 88.45 A 5.421 5.421 0 0 1 960.827 85.352 A 7.931 7.931 0 0 1 960.7 83.9 A 7.471 7.471 0 0 1 961.129 81.322 A 6.551 6.551 0 0 1 962.8 78.8 A 7.161 7.161 0 0 1 966.909 76.883 A 9.795 9.795 0 0 1 968.2 76.8 Q 972.5 76.8 974.7 80.3 A 14.202 14.202 0 0 1 976.685 85.727 A 18.573 18.573 0 0 1 976.9 88.6 A 21.935 21.935 0 0 1 975.131 97.106 A 28.252 28.252 0 0 1 973.4 100.55 Q 969.9 106.5 962.6 110 Z M 118.8 60.1 L 119 36.6 L 96.6 36.6 L 96.7 60.1 L 118.8 60.1 Z M 561.6 60.1 L 561.8 36.6 L 539.4 36.6 L 539.5 60.1 L 561.6 60.1 Z M 936.1 60.1 L 936.3 36.6 L 913.9 36.6 L 914 60.1 L 936.1 60.1 Z M 1059.7 57.3 L 1059.9 36.6 L 1036.3 36.6 Q 1036.5 38.5 1036.55 40.8 A 427.727 427.727 0 0 1 1036.572 41.847 Q 1036.593 42.976 1036.598 43.638 A 47.501 47.501 0 0 1 1036.6 44 Q 1036.6 48.4 1036.25 52 A 56.68 56.68 0 0 1 1036.007 54.113 Q 1035.713 56.288 1035.3 57.8 A 10.734 10.734 0 0 0 1036.153 58.242 Q 1037.203 58.734 1038.75 59.25 A 37.45 37.45 0 0 0 1042.294 60.234 A 43.012 43.012 0 0 0 1043.55 60.5 A 27.045 27.045 0 0 0 1046.64 60.93 A 22.54 22.54 0 0 0 1048.4 61 Q 1051.9 61 1055 59.85 Q 1058.1 58.7 1059.7 57.3 Z M 1119.4 60.6 L 1119.4 59.8 A 26.565 26.565 0 0 0 1115.054 56.418 A 34.323 34.323 0 0 0 1111.45 54.45 A 23.324 23.324 0 0 0 1105.344 52.491 A 20.619 20.619 0 0 0 1101.9 52.2 A 17.696 17.696 0 0 0 1097.114 52.821 A 14.27 14.27 0 0 0 1092.5 55.05 Q 1088.6 57.9 1088.6 63.2 A 9.114 9.114 0 0 0 1088.931 65.725 A 6.658 6.658 0 0 0 1091.4 69.3 A 10.501 10.501 0 0 0 1097.181 71.375 A 13.188 13.188 0 0 0 1098 71.4 A 14.127 14.127 0 0 0 1101.172 71.011 Q 1103.671 70.434 1106.6 69 A 43.691 43.691 0 0 0 1109.864 67.203 Q 1113.907 64.772 1119.4 60.6 Z" vector-effect="non-scaling-stroke"/></g></svg>