<!--
माया विनाशः भवतु, स्वाहा
摩耶毘那舍婆伐度娑婆訶
まやびなしゃばばつどそわか
-->
<svg width="946.9" height="116.6" viewBox="0 0 946.9 116.6" xmlns="http://www.w3.org/2000/svg">
    <g id="svgGroup" stroke-linecap="round" fill-rule="evenodd" font-size="9pt" stroke="#000"
        stroke-width="0.25mm" fill="#000" style="stroke:#000;stroke-width:0.25mm;fill:#000">
        <path
            d="M 380.6 50.1 L 376.1 42.7 Q 380 40.3 383.8 39.15 A 58.176 58.176 0 0 1 386.739 38.339 Q 388.141 37.994 389.393 37.774 A 30.354 30.354 0 0 1 390.5 37.6 L 390.5 33.5 L 372.3 33.5 L 368.9 27 L 368.9 26 L 439 26 L 442.4 32.5 L 442.4 33.5 L 430.7 33.5 L 430.9 89.5 L 429.9 89.5 L 421.9 84.3 L 422.3 33.5 L 398.2 33.5 L 398.3 38.3 Q 402.1 39.6 404.85 42.3 A 18.592 18.592 0 0 1 408.53 47.319 A 17.563 17.563 0 0 1 409 48.35 A 19.392 19.392 0 0 1 410.005 51.414 A 14.437 14.437 0 0 1 410.4 54.7 A 13.191 13.191 0 0 1 409.833 58.629 A 11.394 11.394 0 0 1 408.45 61.55 Q 406.5 64.5 403.45 66.55 Q 400.4 68.6 397.1 69.8 L 412.9 85.9 L 407.8 90.1 L 406.8 90.1 L 391.7 71.1 A 22.327 22.327 0 0 1 389.531 71.358 A 18.333 18.333 0 0 1 388.3 71.4 Q 384.8 71.4 382.15 69.85 A 14.115 14.115 0 0 1 379.691 68.049 A 11.358 11.358 0 0 1 378 66.1 A 10.293 10.293 0 0 1 377.116 64.545 Q 376.695 63.613 376.562 62.719 A 5.551 5.551 0 0 1 376.5 61.9 A 3.36 3.36 0 0 1 376.607 61.031 A 2.505 2.505 0 0 1 377.2 59.95 A 1.754 1.754 0 0 1 377.784 59.555 Q 378.368 59.297 379.326 59.227 A 10.591 10.591 0 0 1 380.1 59.2 A 13.063 13.063 0 0 1 383.513 59.672 A 16.676 16.676 0 0 1 385.5 60.35 Q 388.3 61.5 390.9 63.2 A 17.672 17.672 0 0 0 393.655 62.441 Q 395.126 61.913 396.7 61.1 Q 399.8 59.5 402 56.95 A 9.301 9.301 0 0 0 403.615 54.351 A 8.089 8.089 0 0 0 404.2 51.3 Q 404.2 48.5 402.2 46.45 Q 400.2 44.4 396.6 44.4 A 12.483 12.483 0 0 0 394.944 44.523 Q 393.181 44.761 390.778 45.459 A 52.635 52.635 0 0 0 389.65 45.8 A 35.647 35.647 0 0 0 384.171 48.063 A 45.083 45.083 0 0 0 380.6 50.1 Z M 908.2 100.1 L 907.1 104.4 Q 895.1 101.4 887.8 97.1 Q 882.327 93.876 879.074 90.259 A 21.99 21.99 0 0 1 877.15 87.8 A 21.314 21.314 0 0 1 874.86 83.406 A 16.198 16.198 0 0 1 873.8 77.7 Q 873.8 72.6 876.7 68.2 A 23.549 23.549 0 0 1 872.375 63.375 A 27.827 27.827 0 0 1 871.35 61.75 A 16.776 16.776 0 0 1 869.562 57.494 A 14.265 14.265 0 0 1 869.1 53.9 Q 869.1 48.6 873.45 45.3 A 13.425 13.425 0 0 1 877.216 43.354 Q 881.142 42 887.1 42 L 900.6 42 L 900.6 33.5 L 864.8 33.5 L 861.4 27 L 861.4 26 L 916.8 26 L 920.2 32.5 L 920.2 33.5 L 908.8 33.5 Q 908.8 37.3 908.85 41.45 Q 908.884 44.303 908.895 46.66 A 448.441 448.441 0 0 1 908.9 48.7 L 907.7 49.5 L 888.9 49.5 A 29.7 29.7 0 0 0 885.466 49.686 Q 881.969 50.094 879.7 51.4 Q 876.4 53.3 876.4 57.4 A 8.351 8.351 0 0 0 877.086 60.678 A 10.046 10.046 0 0 0 877.4 61.35 Q 878.4 63.3 879.7 64.6 A 24.466 24.466 0 0 1 886.82 60.135 A 27.673 27.673 0 0 1 887.15 60 Q 891.4 58.3 896.1 58.3 A 23.707 23.707 0 0 1 899.647 58.551 Q 902.108 58.924 904.05 59.85 Q 907.3 61.4 909.25 63.8 A 17.715 17.715 0 0 1 911.237 66.799 A 14.932 14.932 0 0 1 912.1 68.8 A 18.585 18.585 0 0 1 912.683 70.83 Q 912.921 71.897 912.98 72.866 A 10.345 10.345 0 0 1 913 73.5 A 11.554 11.554 0 0 1 908.532 82.669 Q 906.746 84.17 904.246 85.406 A 30.832 30.832 0 0 1 902.5 86.2 L 897.8 79.5 A 22.871 22.871 0 0 0 902.355 76.61 A 20.659 20.659 0 0 0 903.55 75.55 A 7.744 7.744 0 0 0 905.998 69.918 A 9.85 9.85 0 0 0 906 69.7 A 6.626 6.626 0 0 0 905.805 68.039 A 4.318 4.318 0 0 0 904 65.45 A 7.089 7.089 0 0 0 901.984 64.533 Q 901.051 64.264 899.933 64.162 A 15.802 15.802 0 0 0 898.5 64.1 A 16.83 16.83 0 0 0 892.868 65.023 A 15.429 15.429 0 0 0 890.05 66.35 A 17.117 17.117 0 0 0 884.786 71.177 A 16.664 16.664 0 0 0 884.15 72.15 A 14.631 14.631 0 0 0 882.215 77.167 A 13.741 13.741 0 0 0 882 79.6 A 11.935 11.935 0 0 0 882.718 83.588 Q 883.285 85.195 884.3 86.85 Q 885.987 89.6 889.529 92.162 A 36.62 36.62 0 0 0 892.35 94 A 40.952 40.952 0 0 0 896.817 96.255 Q 901.572 98.328 908.2 100.1 Z M 484.4 57 L 491.4 57 A 327.703 327.703 0 0 0 491.631 54.756 Q 491.95 51.55 492.1 49.3 Q 492.3 46.3 492.3 43.1 A 39.354 39.354 0 0 0 492.201 40.198 Q 491.993 37.391 491.344 35.646 A 6.115 6.115 0 0 0 490.5 34.05 Q 488.7 31.7 485.2 31.7 Q 482.7 31.7 480.7 33.2 A 4.767 4.767 0 0 0 478.731 36.667 A 6.264 6.264 0 0 0 478.7 37.3 A 5.23 5.23 0 0 0 480.395 41.245 A 6.817 6.817 0 0 0 480.8 41.6 A 29.247 29.247 0 0 0 484.279 44.032 A 26.256 26.256 0 0 0 485.1 44.5 L 485.1 45.6 Q 484.137 45.696 483.684 45.746 A 39.346 39.346 0 0 0 483.65 45.75 Q 483.229 45.797 483.114 45.8 A 0.55 0.55 0 0 1 483.1 45.8 Q 477.3 45.8 474.1 42.3 Q 470.9 38.8 470.9 34.2 A 9.953 9.953 0 0 1 471.185 31.762 A 7.548 7.548 0 0 1 472.5 29 Q 474.1 26.9 476.55 25.8 A 12.336 12.336 0 0 1 480.175 24.778 A 11.341 11.341 0 0 1 481.5 24.7 Q 485.3 24.7 488.7 26.55 A 21.351 21.351 0 0 1 494.729 31.476 A 23.822 23.822 0 0 1 494.75 31.5 Q 497.4 34.6 498.9 38.3 A 20.559 20.559 0 0 1 500.189 42.886 A 17.736 17.736 0 0 1 500.4 45.6 Q 500.4 48.2 500.3 51.3 Q 500.2 54.4 500.1 57 L 519.7 57 L 519.9 33.5 L 505.9 33.5 L 502.5 27 L 502.5 26 L 536.6 26 L 540 32.5 L 540 33.5 L 528.3 33.5 L 528.5 89 L 527.5 89 L 519.5 83.8 L 519.6 64.5 L 499.4 64.5 Q 498.801 69.795 498.251 71.996 A 13.574 13.574 0 0 1 498.25 72 Q 497.716 74.137 495.907 74.198 A 3.185 3.185 0 0 1 495.8 74.2 A 4.321 4.321 0 0 1 494.619 74.019 Q 493.564 73.718 492.267 72.916 A 16.749 16.749 0 0 1 491.85 72.65 A 24.567 24.567 0 0 1 489.222 70.637 A 31.599 31.599 0 0 1 487.2 68.7 A 30.034 30.034 0 0 1 484.694 65.738 A 24.692 24.692 0 0 1 483.4 63.8 A 14.098 14.098 0 0 1 482.609 62.296 Q 481.9 60.706 481.9 59.4 A 2.767 2.767 0 0 1 482.045 58.488 A 2.419 2.419 0 0 1 482.5 57.7 A 1.848 1.848 0 0 1 483.32 57.159 Q 483.622 57.055 483.993 57.019 A 4.231 4.231 0 0 1 484.4 57 Z M 623.5 85.5 L 619.2 89 L 618.2 89 Q 612.487 81.597 608.327 75.359 A 158.897 158.897 0 0 1 606.4 72.4 A 36.802 36.802 0 0 1 603.724 67.431 Q 601.7 62.8 601.7 58.6 A 14.889 14.889 0 0 1 602.304 54.227 A 10.874 10.874 0 0 1 607.45 47.85 Q 613.2 44.5 622.7 44.5 L 636.8 44.5 L 636.9 33.5 L 597.5 33.5 L 594.1 27 L 594.1 26 L 653.6 26 L 657 32.5 L 657 33.5 L 645.3 33.5 L 645.5 89 L 644.5 89 L 636.5 83.8 L 636.7 52 L 623.8 52 A 26.051 26.051 0 0 0 619.798 52.286 Q 617.758 52.604 616.126 53.275 A 10.645 10.645 0 0 0 612.95 55.25 A 10.92 10.92 0 0 0 610.26 58.925 A 10.532 10.532 0 0 0 609.4 63.2 Q 609.4 65.4 610.05 67.4 Q 610.7 69.4 612.25 71.8 Q 613.8 74.2 616.55 77.45 Q 619.234 80.621 623.298 85.269 A 1131.44 1131.44 0 0 0 623.5 85.5 Z M 746.6 85.8 L 741.5 90 L 740.5 90 L 722.8 68.4 Q 719.106 63.801 717.231 60.879 A 26.911 26.911 0 0 1 716.2 59.15 Q 714.522 56.041 714.5 53.858 A 5.745 5.745 0 0 1 714.5 53.8 Q 714.5 50.744 719.15 50.607 A 15.184 15.184 0 0 1 719.6 50.6 Q 720.748 50.6 722.571 50.717 A 106.79 106.79 0 0 1 723.75 50.8 Q 726.4 51 728.2 51.2 Q 728.634 49.032 728.804 46.3 A 52.668 52.668 0 0 0 728.85 45.45 A 164.28 164.28 0 0 0 728.941 43.132 Q 728.971 42.216 728.985 41.383 A 90.22 90.22 0 0 0 729 39.8 Q 729 37.6 728.95 36.15 Q 728.9 34.7 728.8 33.5 L 710.5 33.5 L 707.1 27 L 707.1 26 L 777.2 26 L 780.6 32.5 L 780.6 33.5 L 768.9 33.5 L 769.1 89 L 768.1 89 L 760.1 83.8 L 760.2 64.1 Q 756.1 65.6 751.6 65.6 Q 748.8 65.6 744.4 64.45 A 17.639 17.639 0 0 1 741.221 63.252 Q 738.041 61.719 734.3 58.7 A 10.306 10.306 0 0 1 729.328 63.203 A 16.047 16.047 0 0 1 725.8 64.3 L 746.6 85.8 Z M 279.1 33.5 L 279.3 89.5 L 278.3 89.5 L 270.3 84.3 L 270.7 33.5 L 261.9 33.5 L 258.5 27 L 258.5 26 L 271.2 26 A 23.62 23.62 0 0 1 269.501 22.887 A 18.843 18.843 0 0 1 268.6 20.45 Q 267.8 17.7 267.8 15.1 Q 267.8 11.1 269.85 7.7 A 13.379 13.379 0 0 1 273.238 3.979 A 18.446 18.446 0 0 1 276.2 2.15 Q 279.848 0.326 285.08 0.049 A 36.39 36.39 0 0 1 287 0 A 36.573 36.573 0 0 1 296.72 1.353 A 42.521 42.521 0 0 1 299 2.05 Q 304.492 3.896 310.633 7.809 A 78.946 78.946 0 0 1 312 8.7 A 96.3 96.3 0 0 1 318.267 13.28 Q 321.4 15.756 324.746 18.748 A 175.749 175.749 0 0 1 327 20.8 L 324.3 23.9 Q 319 19.4 313.4 15.75 A 59.82 59.82 0 0 0 303.59 10.547 A 54.589 54.589 0 0 0 301.95 9.9 Q 296.1 7.7 290.1 7.7 A 26.307 26.307 0 0 0 286.542 7.926 Q 284.724 8.175 283.21 8.697 A 12.842 12.842 0 0 0 281.45 9.45 A 13.947 13.947 0 0 0 278.993 11.062 A 9.984 9.984 0 0 0 276.6 13.9 Q 275.1 16.6 275.1 19.7 Q 275.1 21.4 275.55 22.9 A 18.059 18.059 0 0 0 276.249 24.814 A 22.083 22.083 0 0 0 276.8 26 L 287.4 26 L 290.8 32.5 L 290.8 33.5 L 279.1 33.5 Z M 243.8 51.2 L 244 33.5 L 202.2 33.5 L 198.8 27 L 198.8 26 L 260.7 26 L 264.1 32.5 L 264.1 33.5 L 252.4 33.5 L 252.6 89 L 251.6 89 L 243.6 83.8 L 243.7 67.9 Q 241.02 69.661 238.868 70.953 A 84.78 84.78 0 0 1 237.6 71.7 Q 235 73.2 232.45 73.95 A 18.024 18.024 0 0 1 229.387 74.555 A 23.923 23.923 0 0 1 226.7 74.7 A 25.397 25.397 0 0 1 222.129 74.308 A 18.858 18.858 0 0 1 217.6 72.9 A 21.173 21.173 0 0 1 212.924 69.985 A 18.769 18.769 0 0 1 211.05 68.2 A 22.059 22.059 0 0 1 208.132 64.221 A 19.242 19.242 0 0 1 207.05 62 A 19.6 19.6 0 0 1 206.092 59.043 A 14.246 14.246 0 0 1 205.7 55.8 Q 205.7 51.6 208.25 48.3 Q 210.8 45 215 43.15 A 22.139 22.139 0 0 1 223.414 41.309 A 25.576 25.576 0 0 1 224.1 41.3 Q 230.1 41.3 235.1 44.1 Q 240.1 46.9 243.8 51.2 Z M 579.4 51.2 L 579.6 33.5 L 537.8 33.5 L 534.4 27 L 534.4 26 L 596.3 26 L 599.7 32.5 L 599.7 33.5 L 588 33.5 L 588.2 89 L 587.2 89 L 579.2 83.8 L 579.3 67.9 Q 576.62 69.661 574.468 70.953 A 84.78 84.78 0 0 1 573.2 71.7 Q 570.6 73.2 568.05 73.95 A 18.024 18.024 0 0 1 564.987 74.555 A 23.923 23.923 0 0 1 562.3 74.7 A 25.397 25.397 0 0 1 557.729 74.308 A 18.858 18.858 0 0 1 553.2 72.9 A 21.173 21.173 0 0 1 548.524 69.985 A 18.769 18.769 0 0 1 546.65 68.2 A 22.059 22.059 0 0 1 543.732 64.221 A 19.242 19.242 0 0 1 542.65 62 A 19.6 19.6 0 0 1 541.692 59.043 A 14.246 14.246 0 0 1 541.3 55.8 Q 541.3 51.6 543.85 48.3 Q 546.4 45 550.6 43.15 A 22.139 22.139 0 0 1 559.014 41.309 A 25.576 25.576 0 0 1 559.7 41.3 Q 565.7 41.3 570.7 44.1 Q 575.7 46.9 579.4 51.2 Z M 820 51.2 L 820.2 33.5 L 778.4 33.5 L 775 27 L 775 26 L 836.9 26 L 840.3 32.5 L 840.3 33.5 L 828.6 33.5 L 828.8 89 L 827.8 89 L 819.8 83.8 L 819.9 67.9 Q 817.22 69.661 815.068 70.953 A 84.78 84.78 0 0 1 813.8 71.7 Q 811.2 73.2 808.65 73.95 A 18.024 18.024 0 0 1 805.587 74.555 A 23.923 23.923 0 0 1 802.9 74.7 A 25.397 25.397 0 0 1 798.329 74.308 A 18.858 18.858 0 0 1 793.8 72.9 A 21.173 21.173 0 0 1 789.124 69.985 A 18.769 18.769 0 0 1 787.25 68.2 A 22.059 22.059 0 0 1 784.332 64.221 A 19.242 19.242 0 0 1 783.25 62 A 19.6 19.6 0 0 1 782.292 59.043 A 14.246 14.246 0 0 1 781.9 55.8 Q 781.9 51.6 784.45 48.3 Q 787 45 791.2 43.15 A 22.139 22.139 0 0 1 799.614 41.309 A 25.576 25.576 0 0 1 800.3 41.3 Q 806.3 41.3 811.3 44.1 Q 816.3 46.9 820 51.2 Z M 347.8 32.5 L 347.8 33.5 L 336.1 33.5 L 336.3 89 L 335.3 89 L 327.3 83.8 L 327.5 58.7 L 309.9 58.7 A 88.594 88.594 0 0 1 309.863 61.372 Q 309.753 64.991 309.32 66.723 A 7.977 7.977 0 0 1 309.3 66.8 A 3.803 3.803 0 0 1 308.853 67.873 Q 308.189 68.927 306.855 69.076 A 4.115 4.115 0 0 1 306.4 69.1 Q 304.3 69.1 301.9 67.8 Q 299.5 66.5 297.45 64.4 Q 295.4 62.3 294.1 59.8 A 12.577 12.577 0 0 1 293.211 57.651 A 9.113 9.113 0 0 1 292.8 55 Q 292.8 52.2 295.05 51.55 Q 297.2 50.929 300.855 50.901 A 45.485 45.485 0 0 1 301.2 50.9 Q 302.858 50.9 306.466 50.942 A 1432.515 1432.515 0 0 1 307.1 50.95 A 481.174 481.174 0 0 1 310.927 51.013 Q 313.541 51.066 316.55 51.15 Q 321.9 51.3 327.5 51.4 L 327.7 33.5 L 288.6 33.5 L 285.2 27 L 285.2 26 L 344.4 26 L 347.8 32.5 Z M 10.6 57 L 16 57 L 16.1 33.5 L 3.4 33.5 L 0 27 L 0 26 L 63.4 26 L 66.8 32.5 L 66.8 33.5 L 55.1 33.5 L 55.3 89 L 54.3 89 L 46.3 83.8 L 46.4 64.5 L 24.5 64.5 L 24.5 71.7 A 3.94 3.94 0 0 1 24.394 72.659 Q 24.006 74.2 22.2 74.2 A 3.906 3.906 0 0 1 21.152 74.041 Q 20.165 73.764 18.914 73.007 A 17.3 17.3 0 0 1 18.35 72.65 A 25.808 25.808 0 0 1 15.706 70.637 A 33.702 33.702 0 0 1 13.65 68.7 A 31.217 31.217 0 0 1 10.831 65.407 A 26.558 26.558 0 0 1 9.7 63.75 A 14.454 14.454 0 0 1 8.874 62.256 Q 8.511 61.49 8.318 60.792 A 5.615 5.615 0 0 1 8.1 59.3 Q 8.1 58.4 8.7 57.7 A 1.848 1.848 0 0 1 9.52 57.159 Q 9.822 57.055 10.193 57.019 A 4.231 4.231 0 0 1 10.6 57 Z M 106.9 33.5 L 91.3 33.5 L 87.9 27 L 87.9 26 L 148.3 26 L 151.7 32.5 L 151.7 33.5 L 140 33.5 L 140.2 89 L 139.2 89 L 131.2 83.8 L 131.3 70.8 A 22.532 22.532 0 0 1 128.019 72.629 A 17.987 17.987 0 0 1 125.3 73.6 Q 122.3 74.4 119.6 74.4 Q 113.7 74.4 108.45 71.25 Q 103.2 68.1 99.55 62.8 Q 95.9 57.5 94.7 50.9 A 78.602 78.602 0 0 0 98.759 49.804 Q 102.642 48.634 105.103 47.344 A 17.325 17.325 0 0 0 106.15 46.75 Q 109.8 44.5 109.8 41.1 A 6.839 6.839 0 0 0 109.723 40.124 Q 109.577 39.113 109.15 37.8 A 13.131 13.131 0 0 0 108.399 35.993 Q 107.952 35.098 107.338 34.151 A 24.283 24.283 0 0 0 106.9 33.5 Z M 93.5 32.5 L 93.5 33.5 L 81.8 33.5 L 82 89.5 L 81 89.5 L 73 84.3 L 73.4 33.5 L 64.6 33.5 L 61.2 27 L 61.2 26 L 90.1 26 L 93.5 32.5 Z M 178.4 32.5 L 178.4 33.5 L 166.7 33.5 L 166.9 89.5 L 165.9 89.5 L 157.9 84.3 L 158.3 33.5 L 149.5 33.5 L 146.1 27 L 146.1 26 L 175 26 L 178.4 32.5 Z M 374.5 32.5 L 374.5 33.5 L 362.8 33.5 L 363 89.5 L 362 89.5 L 354 84.3 L 354.4 33.5 L 345.6 33.5 L 342.2 27 L 342.2 26 L 371.1 26 L 374.5 32.5 Z M 867 32.5 L 867 33.5 L 855.3 33.5 L 855.5 89.5 L 854.5 89.5 L 846.5 84.3 L 846.9 33.5 L 838.1 33.5 L 834.7 27 L 834.7 26 L 863.6 26 L 867 32.5 Z M 946.9 32.5 L 946.9 33.5 L 935.2 33.5 L 935.4 89.5 L 934.4 89.5 L 926.4 84.3 L 926.8 33.5 L 918 33.5 L 914.6 27 L 914.6 26 L 943.5 26 L 946.9 32.5 Z M 634 101.9 L 628.6 95.7 A 23.367 23.367 0 0 1 631.757 93.251 A 19.79 19.79 0 0 1 633.6 92.2 A 12.311 12.311 0 0 1 637.699 91.003 A 15.384 15.384 0 0 1 639.5 90.9 Q 643.6 90.9 647 92.9 Q 650.4 94.9 652.4 98.1 Q 654.4 101.3 654.4 104.9 A 10.745 10.745 0 0 1 653.708 108.828 A 9.659 9.659 0 0 1 650.65 112.9 Q 646.9 115.9 641.7 115.9 A 21.625 21.625 0 0 1 634.668 114.688 A 26.533 26.533 0 0 1 632.2 113.7 Q 627.4 111.5 623.05 108.2 A 90.717 90.717 0 0 1 617.964 104.055 A 74.953 74.953 0 0 1 615.25 101.55 Q 612.164 98.553 610.318 96.477 A 44.347 44.347 0 0 1 609.9 96 L 613.4 91.7 L 614.1 91.7 Q 619.2 98.1 623.25 101.9 Q 626.351 104.809 629.188 106.488 A 20.871 20.871 0 0 0 630.9 107.4 A 17.496 17.496 0 0 0 636.098 108.962 A 16.041 16.041 0 0 0 638.2 109.1 Q 641.585 109.1 643.901 108.031 A 8.251 8.251 0 0 0 645.65 106.95 A 8.02 8.02 0 0 0 647.212 105.295 A 6.008 6.008 0 0 0 648.3 101.8 A 6.321 6.321 0 0 0 648.164 100.441 Q 647.982 99.616 647.557 99.01 A 3.333 3.333 0 0 0 646.75 98.2 A 5.965 5.965 0 0 0 643.774 97.13 A 7.537 7.537 0 0 0 643.1 97.1 Q 640.2 97.1 637.95 98.8 A 148.731 148.731 0 0 0 636.087 100.23 Q 634.956 101.113 634 101.9 Z M 131.4 61 L 131.6 33.5 L 112.4 33.5 A 41.808 41.808 0 0 1 114.624 37.271 Q 116.742 41.379 116.972 44.624 A 10.995 10.995 0 0 1 117 45.4 A 8.53 8.53 0 0 1 114.799 51.124 A 11.931 11.931 0 0 1 113.85 52.1 Q 110.998 54.726 104.742 56.614 A 54.314 54.314 0 0 1 103.4 57 Q 103.5 60 105.15 62.55 Q 106.8 65.1 109.55 66.6 A 12.4 12.4 0 0 0 114.847 68.076 A 14.879 14.879 0 0 0 115.7 68.1 A 15.679 15.679 0 0 0 119.454 67.62 Q 121.064 67.223 122.772 66.498 A 26.333 26.333 0 0 0 123 66.4 Q 126.195 65.007 129.794 62.272 A 53.771 53.771 0 0 0 131.4 61 Z M 759.9 100 L 756.2 92.1 L 756.4 91.5 A 37.949 37.949 0 0 1 759.268 91.069 Q 760.625 90.921 761.852 90.903 A 23.056 23.056 0 0 1 762.2 90.9 Q 765.5 90.9 768.6 92.15 A 23.771 23.771 0 0 1 772.281 94.04 A 30.358 30.358 0 0 1 774.8 95.8 Q 775.997 96.721 778.72 99.083 A 315.282 315.282 0 0 1 779.2 99.5 Q 782.094 102.021 785.686 105.239 A 879.261 879.261 0 0 1 786.2 105.7 Q 790.1 109.2 793.8 112.8 L 790.4 116.6 L 789.7 116.6 Q 785.139 111.469 781.932 108.144 A 147.475 147.475 0 0 0 781.6 107.8 A 85.089 85.089 0 0 0 779.438 105.646 Q 777.475 103.764 775.9 102.55 A 18.838 18.838 0 0 0 773.865 101.172 Q 772.783 100.544 771.733 100.163 A 10.903 10.903 0 0 0 771.25 100 A 15.471 15.471 0 0 0 768.103 99.383 A 19.157 19.157 0 0 0 766.3 99.3 Q 763.9 99.3 762.3 99.6 Q 761.15 99.816 760.414 99.928 A 19.499 19.499 0 0 1 759.9 100 Z M 663.2 106.9 L 661.5 104 Q 666.4 101.3 669.1 97.7 Q 671.8 94.1 671.8 89.7 Q 671.8 89 671.65 87.9 A 6.056 6.056 0 0 0 671.209 86.336 A 7.398 7.398 0 0 0 670.9 85.7 Q 669.2 87 667.1 87 A 5.611 5.611 0 0 1 663.643 85.803 A 7.464 7.464 0 0 1 663.1 85.35 A 5.421 5.421 0 0 1 661.427 82.252 A 7.931 7.931 0 0 1 661.3 80.8 A 7.471 7.471 0 0 1 661.729 78.222 A 6.551 6.551 0 0 1 663.4 75.7 A 7.161 7.161 0 0 1 667.509 73.783 A 9.795 9.795 0 0 1 668.8 73.7 Q 673.1 73.7 675.3 77.2 A 14.202 14.202 0 0 1 677.285 82.627 A 18.573 18.573 0 0 1 677.5 85.5 A 21.935 21.935 0 0 1 675.731 94.006 A 28.252 28.252 0 0 1 674 97.45 Q 670.5 103.4 663.2 106.9 Z M 46.5 57 L 46.7 33.5 L 24.3 33.5 L 24.4 57 L 46.5 57 Z M 760.3 54.2 L 760.5 33.5 L 736.9 33.5 Q 737.1 35.4 737.15 37.7 A 427.727 427.727 0 0 1 737.172 38.747 Q 737.193 39.876 737.198 40.538 A 47.501 47.501 0 0 1 737.2 40.9 Q 737.2 45.3 736.85 48.9 A 56.68 56.68 0 0 1 736.607 51.013 Q 736.313 53.188 735.9 54.7 A 10.734 10.734 0 0 0 736.753 55.142 Q 737.803 55.634 739.35 56.15 A 37.45 37.45 0 0 0 742.894 57.134 A 43.012 43.012 0 0 0 744.15 57.4 A 27.045 27.045 0 0 0 747.24 57.83 A 22.54 22.54 0 0 0 749 57.9 Q 752.5 57.9 755.6 56.75 Q 758.7 55.6 760.3 54.2 Z M 243.8 57.5 L 243.8 56.7 A 26.565 26.565 0 0 0 239.454 53.318 A 34.323 34.323 0 0 0 235.85 51.35 A 23.324 23.324 0 0 0 229.744 49.391 A 20.619 20.619 0 0 0 226.3 49.1 A 17.696 17.696 0 0 0 221.514 49.721 A 14.27 14.27 0 0 0 216.9 51.95 Q 213 54.8 213 60.1 A 9.114 9.114 0 0 0 213.331 62.625 A 6.658 6.658 0 0 0 215.8 66.2 A 10.501 10.501 0 0 0 221.581 68.275 A 13.188 13.188 0 0 0 222.4 68.3 A 14.127 14.127 0 0 0 225.572 67.911 Q 228.071 67.334 231 65.9 A 43.691 43.691 0 0 0 234.264 64.103 Q 238.307 61.672 243.8 57.5 Z M 579.4 57.5 L 579.4 56.7 A 26.565 26.565 0 0 0 575.054 53.318 A 34.323 34.323 0 0 0 571.45 51.35 A 23.324 23.324 0 0 0 565.344 49.391 A 20.619 20.619 0 0 0 561.9 49.1 A 17.696 17.696 0 0 0 557.114 49.721 A 14.27 14.27 0 0 0 552.5 51.95 Q 548.6 54.8 548.6 60.1 A 9.114 9.114 0 0 0 548.931 62.625 A 6.658 6.658 0 0 0 551.4 66.2 A 10.501 10.501 0 0 0 557.181 68.275 A 13.188 13.188 0 0 0 558 68.3 A 14.127 14.127 0 0 0 561.172 67.911 Q 563.671 67.334 566.6 65.9 A 43.691 43.691 0 0 0 569.864 64.103 Q 573.907 61.672 579.4 57.5 Z M 820 57.5 L 820 56.7 A 26.565 26.565 0 0 0 815.654 53.318 A 34.323 34.323 0 0 0 812.05 51.35 A 23.324 23.324 0 0 0 805.944 49.391 A 20.619 20.619 0 0 0 802.5 49.1 A 17.696 17.696 0 0 0 797.714 49.721 A 14.27 14.27 0 0 0 793.1 51.95 Q 789.2 54.8 789.2 60.1 A 9.114 9.114 0 0 0 789.531 62.625 A 6.658 6.658 0 0 0 792 66.2 A 10.501 10.501 0 0 0 797.781 68.275 A 13.188 13.188 0 0 0 798.6 68.3 A 14.127 14.127 0 0 0 801.772 67.911 Q 804.271 67.334 807.2 65.9 A 43.691 43.691 0 0 0 810.464 64.103 Q 814.507 61.672 820 57.5 Z M 444.6 74.3 L 452.1 66.7 L 459.8 74.3 L 452.1 81.6 L 444.6 74.3 Z M 444.6 47.1 L 452.1 39.5 L 459.8 47.1 L 452.1 54.4 L 444.6 47.1 Z"
            vector-effect="non-scaling-stroke" />
    </g>
</svg>