<!--
https://chatgpt.com/share/e5f2e854-7533-4a2d-9bbe-faa46560461c
माया विनाश स्वाहा
摩耶毘那奢薩婆訶
まやびなしゃそわか
-->
<svg width="702.6" height="116.6" viewBox="0 0 702.6 116.6" xmlns="http://www.w3.org/2000/svg">
    <g id="svgGroup" stroke-linecap="round" fill-rule="evenodd" font-size="9pt" stroke="#000"
        stroke-width="0.25mm" fill="#000" style="stroke:#000;stroke-width:0.25mm;fill:#000">
        <path
            d="M 380.6 50.1 L 376.1 42.7 Q 380 40.3 383.8 39.15 A 58.176 58.176 0 0 1 386.739 38.339 Q 388.141 37.994 389.393 37.774 A 30.354 30.354 0 0 1 390.5 37.6 L 390.5 33.5 L 372.3 33.5 L 368.9 27 L 368.9 26 L 439 26 L 442.4 32.5 L 442.4 33.5 L 430.7 33.5 L 430.9 89.5 L 429.9 89.5 L 421.9 84.3 L 422.3 33.5 L 398.2 33.5 L 398.3 38.3 Q 402.1 39.6 404.85 42.3 A 18.592 18.592 0 0 1 408.53 47.319 A 17.563 17.563 0 0 1 409 48.35 A 19.392 19.392 0 0 1 410.005 51.414 A 14.437 14.437 0 0 1 410.4 54.7 A 13.191 13.191 0 0 1 409.833 58.629 A 11.394 11.394 0 0 1 408.45 61.55 Q 406.5 64.5 403.45 66.55 Q 400.4 68.6 397.1 69.8 L 412.9 85.9 L 407.8 90.1 L 406.8 90.1 L 391.7 71.1 A 22.327 22.327 0 0 1 389.531 71.358 A 18.333 18.333 0 0 1 388.3 71.4 Q 384.8 71.4 382.15 69.85 A 14.115 14.115 0 0 1 379.691 68.049 A 11.358 11.358 0 0 1 378 66.1 A 10.293 10.293 0 0 1 377.116 64.545 Q 376.695 63.613 376.562 62.719 A 5.551 5.551 0 0 1 376.5 61.9 A 3.36 3.36 0 0 1 376.607 61.031 A 2.505 2.505 0 0 1 377.2 59.95 A 1.754 1.754 0 0 1 377.784 59.555 Q 378.368 59.297 379.326 59.227 A 10.591 10.591 0 0 1 380.1 59.2 A 13.063 13.063 0 0 1 383.513 59.672 A 16.676 16.676 0 0 1 385.5 60.35 Q 388.3 61.5 390.9 63.2 A 17.672 17.672 0 0 0 393.655 62.441 Q 395.126 61.913 396.7 61.1 Q 399.8 59.5 402 56.95 A 9.301 9.301 0 0 0 403.615 54.351 A 8.089 8.089 0 0 0 404.2 51.3 Q 404.2 48.5 402.2 46.45 Q 400.2 44.4 396.6 44.4 A 12.483 12.483 0 0 0 394.944 44.523 Q 393.181 44.761 390.778 45.459 A 52.635 52.635 0 0 0 389.65 45.8 A 35.647 35.647 0 0 0 384.171 48.063 A 45.083 45.083 0 0 0 380.6 50.1 Z M 663.9 100.1 L 662.8 104.4 Q 650.8 101.4 643.5 97.1 Q 638.027 93.876 634.774 90.259 A 21.99 21.99 0 0 1 632.85 87.8 A 21.314 21.314 0 0 1 630.56 83.406 A 16.198 16.198 0 0 1 629.5 77.7 Q 629.5 72.6 632.4 68.2 A 23.549 23.549 0 0 1 628.075 63.375 A 27.827 27.827 0 0 1 627.05 61.75 A 16.776 16.776 0 0 1 625.262 57.494 A 14.265 14.265 0 0 1 624.8 53.9 Q 624.8 48.6 629.15 45.3 A 13.425 13.425 0 0 1 632.916 43.354 Q 636.842 42 642.8 42 L 656.3 42 L 656.3 33.5 L 620.5 33.5 L 617.1 27 L 617.1 26 L 672.5 26 L 675.9 32.5 L 675.9 33.5 L 664.5 33.5 Q 664.5 37.3 664.55 41.45 Q 664.584 44.303 664.595 46.66 A 448.441 448.441 0 0 1 664.6 48.7 L 663.4 49.5 L 644.6 49.5 A 29.7 29.7 0 0 0 641.166 49.686 Q 637.669 50.094 635.4 51.4 Q 632.1 53.3 632.1 57.4 A 8.351 8.351 0 0 0 632.786 60.678 A 10.046 10.046 0 0 0 633.1 61.35 Q 634.1 63.3 635.4 64.6 A 24.466 24.466 0 0 1 642.52 60.135 A 27.673 27.673 0 0 1 642.85 60 Q 647.1 58.3 651.8 58.3 A 23.707 23.707 0 0 1 655.347 58.551 Q 657.808 58.924 659.75 59.85 Q 663 61.4 664.95 63.8 A 17.715 17.715 0 0 1 666.937 66.799 A 14.932 14.932 0 0 1 667.8 68.8 A 18.585 18.585 0 0 1 668.383 70.83 Q 668.621 71.897 668.68 72.866 A 10.345 10.345 0 0 1 668.7 73.5 A 11.554 11.554 0 0 1 664.232 82.669 Q 662.446 84.17 659.946 85.406 A 30.832 30.832 0 0 1 658.2 86.2 L 653.5 79.5 A 22.871 22.871 0 0 0 658.055 76.61 A 20.659 20.659 0 0 0 659.25 75.55 A 7.744 7.744 0 0 0 661.698 69.918 A 9.85 9.85 0 0 0 661.7 69.7 A 6.626 6.626 0 0 0 661.505 68.039 A 4.318 4.318 0 0 0 659.7 65.45 A 7.089 7.089 0 0 0 657.684 64.533 Q 656.751 64.264 655.633 64.162 A 15.802 15.802 0 0 0 654.2 64.1 A 16.83 16.83 0 0 0 648.568 65.023 A 15.429 15.429 0 0 0 645.75 66.35 A 17.117 17.117 0 0 0 640.486 71.177 A 16.664 16.664 0 0 0 639.85 72.15 A 14.631 14.631 0 0 0 637.915 77.167 A 13.741 13.741 0 0 0 637.7 79.6 A 11.935 11.935 0 0 0 638.418 83.588 Q 638.985 85.195 640 86.85 Q 641.687 89.6 645.229 92.162 A 36.62 36.62 0 0 0 648.05 94 A 40.952 40.952 0 0 0 652.517 96.255 Q 657.272 98.328 663.9 100.1 Z M 502.3 85.8 L 497.2 90 L 496.2 90 L 478.5 68.4 Q 474.806 63.801 472.931 60.879 A 26.911 26.911 0 0 1 471.9 59.15 Q 470.222 56.041 470.2 53.858 A 5.745 5.745 0 0 1 470.2 53.8 Q 470.2 50.744 474.85 50.607 A 15.184 15.184 0 0 1 475.3 50.6 Q 476.448 50.6 478.271 50.717 A 106.79 106.79 0 0 1 479.45 50.8 Q 482.1 51 483.9 51.2 Q 484.334 49.032 484.504 46.3 A 52.668 52.668 0 0 0 484.55 45.45 A 164.28 164.28 0 0 0 484.641 43.132 Q 484.671 42.216 484.685 41.383 A 90.22 90.22 0 0 0 484.7 39.8 Q 484.7 37.6 484.65 36.15 Q 484.6 34.7 484.5 33.5 L 466.2 33.5 L 462.8 27 L 462.8 26 L 532.9 26 L 536.3 32.5 L 536.3 33.5 L 524.6 33.5 L 524.8 89 L 523.8 89 L 515.8 83.8 L 515.9 64.1 Q 511.8 65.6 507.3 65.6 Q 504.5 65.6 500.1 64.45 A 17.639 17.639 0 0 1 496.921 63.252 Q 493.741 61.719 490 58.7 A 10.306 10.306 0 0 1 485.028 63.203 A 16.047 16.047 0 0 1 481.5 64.3 L 502.3 85.8 Z M 279.1 33.5 L 279.3 89.5 L 278.3 89.5 L 270.3 84.3 L 270.7 33.5 L 261.9 33.5 L 258.5 27 L 258.5 26 L 271.2 26 A 23.62 23.62 0 0 1 269.501 22.887 A 18.843 18.843 0 0 1 268.6 20.45 Q 267.8 17.7 267.8 15.1 Q 267.8 11.1 269.85 7.7 A 13.379 13.379 0 0 1 273.238 3.979 A 18.446 18.446 0 0 1 276.2 2.15 Q 279.848 0.326 285.08 0.049 A 36.39 36.39 0 0 1 287 0 A 36.573 36.573 0 0 1 296.72 1.353 A 42.521 42.521 0 0 1 299 2.05 Q 304.492 3.896 310.633 7.809 A 78.946 78.946 0 0 1 312 8.7 A 96.3 96.3 0 0 1 318.267 13.28 Q 321.4 15.756 324.746 18.748 A 175.749 175.749 0 0 1 327 20.8 L 324.3 23.9 Q 319 19.4 313.4 15.75 A 59.82 59.82 0 0 0 303.59 10.547 A 54.589 54.589 0 0 0 301.95 9.9 Q 296.1 7.7 290.1 7.7 A 26.307 26.307 0 0 0 286.542 7.926 Q 284.724 8.175 283.21 8.697 A 12.842 12.842 0 0 0 281.45 9.45 A 13.947 13.947 0 0 0 278.993 11.062 A 9.984 9.984 0 0 0 276.6 13.9 Q 275.1 16.6 275.1 19.7 Q 275.1 21.4 275.55 22.9 A 18.059 18.059 0 0 0 276.249 24.814 A 22.083 22.083 0 0 0 276.8 26 L 287.4 26 L 290.8 32.5 L 290.8 33.5 L 279.1 33.5 Z M 243.8 51.2 L 244 33.5 L 202.2 33.5 L 198.8 27 L 198.8 26 L 260.7 26 L 264.1 32.5 L 264.1 33.5 L 252.4 33.5 L 252.6 89 L 251.6 89 L 243.6 83.8 L 243.7 67.9 Q 241.02 69.661 238.868 70.953 A 84.78 84.78 0 0 1 237.6 71.7 Q 235 73.2 232.45 73.95 A 18.024 18.024 0 0 1 229.387 74.555 A 23.923 23.923 0 0 1 226.7 74.7 A 25.397 25.397 0 0 1 222.129 74.308 A 18.858 18.858 0 0 1 217.6 72.9 A 21.173 21.173 0 0 1 212.924 69.985 A 18.769 18.769 0 0 1 211.05 68.2 A 22.059 22.059 0 0 1 208.132 64.221 A 19.242 19.242 0 0 1 207.05 62 A 19.6 19.6 0 0 1 206.092 59.043 A 14.246 14.246 0 0 1 205.7 55.8 Q 205.7 51.6 208.25 48.3 Q 210.8 45 215 43.15 A 22.139 22.139 0 0 1 223.414 41.309 A 25.576 25.576 0 0 1 224.1 41.3 Q 230.1 41.3 235.1 44.1 Q 240.1 46.9 243.8 51.2 Z M 575.7 51.2 L 575.9 33.5 L 534.1 33.5 L 530.7 27 L 530.7 26 L 592.6 26 L 596 32.5 L 596 33.5 L 584.3 33.5 L 584.5 89 L 583.5 89 L 575.5 83.8 L 575.6 67.9 Q 572.92 69.661 570.768 70.953 A 84.78 84.78 0 0 1 569.5 71.7 Q 566.9 73.2 564.35 73.95 A 18.024 18.024 0 0 1 561.287 74.555 A 23.923 23.923 0 0 1 558.6 74.7 A 25.397 25.397 0 0 1 554.029 74.308 A 18.858 18.858 0 0 1 549.5 72.9 A 21.173 21.173 0 0 1 544.824 69.985 A 18.769 18.769 0 0 1 542.95 68.2 A 22.059 22.059 0 0 1 540.032 64.221 A 19.242 19.242 0 0 1 538.95 62 A 19.6 19.6 0 0 1 537.992 59.043 A 14.246 14.246 0 0 1 537.6 55.8 Q 537.6 51.6 540.15 48.3 Q 542.7 45 546.9 43.15 A 22.139 22.139 0 0 1 555.314 41.309 A 25.576 25.576 0 0 1 556 41.3 Q 562 41.3 567 44.1 Q 572 46.9 575.7 51.2 Z M 347.8 32.5 L 347.8 33.5 L 336.1 33.5 L 336.3 89 L 335.3 89 L 327.3 83.8 L 327.5 58.7 L 309.9 58.7 A 88.594 88.594 0 0 1 309.863 61.372 Q 309.753 64.991 309.32 66.723 A 7.977 7.977 0 0 1 309.3 66.8 A 3.803 3.803 0 0 1 308.853 67.873 Q 308.189 68.927 306.855 69.076 A 4.115 4.115 0 0 1 306.4 69.1 Q 304.3 69.1 301.9 67.8 Q 299.5 66.5 297.45 64.4 Q 295.4 62.3 294.1 59.8 A 12.577 12.577 0 0 1 293.211 57.651 A 9.113 9.113 0 0 1 292.8 55 Q 292.8 52.2 295.05 51.55 Q 297.2 50.929 300.855 50.901 A 45.485 45.485 0 0 1 301.2 50.9 Q 302.858 50.9 306.466 50.942 A 1432.515 1432.515 0 0 1 307.1 50.95 A 481.174 481.174 0 0 1 310.927 51.013 Q 313.541 51.066 316.55 51.15 Q 321.9 51.3 327.5 51.4 L 327.7 33.5 L 288.6 33.5 L 285.2 27 L 285.2 26 L 344.4 26 L 347.8 32.5 Z M 10.6 57 L 16 57 L 16.1 33.5 L 3.4 33.5 L 0 27 L 0 26 L 63.4 26 L 66.8 32.5 L 66.8 33.5 L 55.1 33.5 L 55.3 89 L 54.3 89 L 46.3 83.8 L 46.4 64.5 L 24.5 64.5 L 24.5 71.7 A 3.94 3.94 0 0 1 24.394 72.659 Q 24.006 74.2 22.2 74.2 A 3.906 3.906 0 0 1 21.152 74.041 Q 20.165 73.764 18.914 73.007 A 17.3 17.3 0 0 1 18.35 72.65 A 25.808 25.808 0 0 1 15.706 70.637 A 33.702 33.702 0 0 1 13.65 68.7 A 31.217 31.217 0 0 1 10.831 65.407 A 26.558 26.558 0 0 1 9.7 63.75 A 14.454 14.454 0 0 1 8.874 62.256 Q 8.511 61.49 8.318 60.792 A 5.615 5.615 0 0 1 8.1 59.3 Q 8.1 58.4 8.7 57.7 A 1.848 1.848 0 0 1 9.52 57.159 Q 9.822 57.055 10.193 57.019 A 4.231 4.231 0 0 1 10.6 57 Z M 106.9 33.5 L 91.3 33.5 L 87.9 27 L 87.9 26 L 148.3 26 L 151.7 32.5 L 151.7 33.5 L 140 33.5 L 140.2 89 L 139.2 89 L 131.2 83.8 L 131.3 70.8 A 22.532 22.532 0 0 1 128.019 72.629 A 17.987 17.987 0 0 1 125.3 73.6 Q 122.3 74.4 119.6 74.4 Q 113.7 74.4 108.45 71.25 Q 103.2 68.1 99.55 62.8 Q 95.9 57.5 94.7 50.9 A 78.602 78.602 0 0 0 98.759 49.804 Q 102.642 48.634 105.103 47.344 A 17.325 17.325 0 0 0 106.15 46.75 Q 109.8 44.5 109.8 41.1 A 6.839 6.839 0 0 0 109.723 40.124 Q 109.577 39.113 109.15 37.8 A 13.131 13.131 0 0 0 108.399 35.993 Q 107.952 35.098 107.338 34.151 A 24.283 24.283 0 0 0 106.9 33.5 Z M 93.5 32.5 L 93.5 33.5 L 81.8 33.5 L 82 89.5 L 81 89.5 L 73 84.3 L 73.4 33.5 L 64.6 33.5 L 61.2 27 L 61.2 26 L 90.1 26 L 93.5 32.5 Z M 178.4 32.5 L 178.4 33.5 L 166.7 33.5 L 166.9 89.5 L 165.9 89.5 L 157.9 84.3 L 158.3 33.5 L 149.5 33.5 L 146.1 27 L 146.1 26 L 175 26 L 178.4 32.5 Z M 374.5 32.5 L 374.5 33.5 L 362.8 33.5 L 363 89.5 L 362 89.5 L 354 84.3 L 354.4 33.5 L 345.6 33.5 L 342.2 27 L 342.2 26 L 371.1 26 L 374.5 32.5 Z M 622.7 32.5 L 622.7 33.5 L 611 33.5 L 611.2 89.5 L 610.2 89.5 L 602.2 84.3 L 602.6 33.5 L 593.8 33.5 L 590.4 27 L 590.4 26 L 619.3 26 L 622.7 32.5 Z M 702.6 32.5 L 702.6 33.5 L 690.9 33.5 L 691.1 89.5 L 690.1 89.5 L 682.1 84.3 L 682.5 33.5 L 673.7 33.5 L 670.3 27 L 670.3 26 L 699.2 26 L 702.6 32.5 Z M 131.4 61 L 131.6 33.5 L 112.4 33.5 A 41.808 41.808 0 0 1 114.624 37.271 Q 116.742 41.379 116.972 44.624 A 10.995 10.995 0 0 1 117 45.4 A 8.53 8.53 0 0 1 114.799 51.124 A 11.931 11.931 0 0 1 113.85 52.1 Q 110.998 54.726 104.742 56.614 A 54.314 54.314 0 0 1 103.4 57 Q 103.5 60 105.15 62.55 Q 106.8 65.1 109.55 66.6 A 12.4 12.4 0 0 0 114.847 68.076 A 14.879 14.879 0 0 0 115.7 68.1 A 15.679 15.679 0 0 0 119.454 67.62 Q 121.064 67.223 122.772 66.498 A 26.333 26.333 0 0 0 123 66.4 Q 126.195 65.007 129.794 62.272 A 53.771 53.771 0 0 0 131.4 61 Z M 515.6 100 L 511.9 92.1 L 512.1 91.5 A 37.949 37.949 0 0 1 514.968 91.069 Q 516.325 90.921 517.552 90.903 A 23.056 23.056 0 0 1 517.9 90.9 Q 521.2 90.9 524.3 92.15 A 23.771 23.771 0 0 1 527.981 94.04 A 30.358 30.358 0 0 1 530.5 95.8 Q 531.697 96.721 534.42 99.083 A 315.282 315.282 0 0 1 534.9 99.5 Q 537.794 102.021 541.386 105.239 A 879.261 879.261 0 0 1 541.9 105.7 Q 545.8 109.2 549.5 112.8 L 546.1 116.6 L 545.4 116.6 Q 540.839 111.469 537.632 108.144 A 147.475 147.475 0 0 0 537.3 107.8 A 85.089 85.089 0 0 0 535.138 105.646 Q 533.175 103.764 531.6 102.55 A 18.838 18.838 0 0 0 529.565 101.172 Q 528.483 100.544 527.433 100.163 A 10.903 10.903 0 0 0 526.95 100 A 15.471 15.471 0 0 0 523.803 99.383 A 19.157 19.157 0 0 0 522 99.3 Q 519.6 99.3 518 99.6 Q 516.85 99.816 516.114 99.928 A 19.499 19.499 0 0 1 515.6 100 Z M 46.5 57 L 46.7 33.5 L 24.3 33.5 L 24.4 57 L 46.5 57 Z M 516 54.2 L 516.2 33.5 L 492.6 33.5 Q 492.8 35.4 492.85 37.7 A 427.727 427.727 0 0 1 492.872 38.747 Q 492.893 39.876 492.898 40.538 A 47.501 47.501 0 0 1 492.9 40.9 Q 492.9 45.3 492.55 48.9 A 56.68 56.68 0 0 1 492.307 51.013 Q 492.013 53.188 491.6 54.7 A 10.734 10.734 0 0 0 492.453 55.142 Q 493.503 55.634 495.05 56.15 A 37.45 37.45 0 0 0 498.594 57.134 A 43.012 43.012 0 0 0 499.85 57.4 A 27.045 27.045 0 0 0 502.94 57.83 A 22.54 22.54 0 0 0 504.7 57.9 Q 508.2 57.9 511.3 56.75 Q 514.4 55.6 516 54.2 Z M 243.8 57.5 L 243.8 56.7 A 26.565 26.565 0 0 0 239.454 53.318 A 34.323 34.323 0 0 0 235.85 51.35 A 23.324 23.324 0 0 0 229.744 49.391 A 20.619 20.619 0 0 0 226.3 49.1 A 17.696 17.696 0 0 0 221.514 49.721 A 14.27 14.27 0 0 0 216.9 51.95 Q 213 54.8 213 60.1 A 9.114 9.114 0 0 0 213.331 62.625 A 6.658 6.658 0 0 0 215.8 66.2 A 10.501 10.501 0 0 0 221.581 68.275 A 13.188 13.188 0 0 0 222.4 68.3 A 14.127 14.127 0 0 0 225.572 67.911 Q 228.071 67.334 231 65.9 A 43.691 43.691 0 0 0 234.264 64.103 Q 238.307 61.672 243.8 57.5 Z M 575.7 57.5 L 575.7 56.7 A 26.565 26.565 0 0 0 571.354 53.318 A 34.323 34.323 0 0 0 567.75 51.35 A 23.324 23.324 0 0 0 561.644 49.391 A 20.619 20.619 0 0 0 558.2 49.1 A 17.696 17.696 0 0 0 553.414 49.721 A 14.27 14.27 0 0 0 548.8 51.95 Q 544.9 54.8 544.9 60.1 A 9.114 9.114 0 0 0 545.231 62.625 A 6.658 6.658 0 0 0 547.7 66.2 A 10.501 10.501 0 0 0 553.481 68.275 A 13.188 13.188 0 0 0 554.3 68.3 A 14.127 14.127 0 0 0 557.472 67.911 Q 559.971 67.334 562.9 65.9 A 43.691 43.691 0 0 0 566.164 64.103 Q 570.207 61.672 575.7 57.5 Z"
            vector-effect="non-scaling-stroke" />
    </g>
</svg>