<!--
https://chatgpt.com/share/002f1500-f397-4171-81a3-2f42d023aa09
गते गते पारगते पारसंगते बोधि स्वाहा
羯諦羯諦波羅羯諦波羅僧羯諦菩提薩婆訶
ぎゃーてーぎゃーてー はらぎゃーてー はらそーぎゃーてー ぼじそわか
-->
<svg width="1322.7" height="119.7" viewBox="0 0 1322.7 119.7" xmlns="http://www.w3.org/2000/svg">
    <g id="svgGroup" stroke-linecap="round" fill-rule="evenodd" font-size="9pt" stroke="#000"
        stroke-width="0.25mm" fill="#000" style="stroke:#000;stroke-width:0.25mm;fill:#000">
        <path
            d="M 1284 103.2 L 1282.9 107.5 Q 1270.9 104.5 1263.6 100.2 Q 1258.127 96.976 1254.874 93.359 A 21.99 21.99 0 0 1 1252.95 90.9 A 21.314 21.314 0 0 1 1250.66 86.506 A 16.198 16.198 0 0 1 1249.6 80.8 Q 1249.6 75.7 1252.5 71.3 A 23.549 23.549 0 0 1 1248.175 66.475 A 27.827 27.827 0 0 1 1247.15 64.85 A 16.776 16.776 0 0 1 1245.362 60.594 A 14.265 14.265 0 0 1 1244.9 57 Q 1244.9 51.7 1249.25 48.4 A 13.425 13.425 0 0 1 1253.016 46.454 Q 1256.942 45.1 1262.9 45.1 L 1276.4 45.1 L 1276.4 36.6 L 1240.6 36.6 L 1237.2 30.1 L 1237.2 29.1 L 1292.6 29.1 L 1296 35.6 L 1296 36.6 L 1284.6 36.6 Q 1284.6 40.4 1284.65 44.55 Q 1284.684 47.403 1284.695 49.76 A 448.441 448.441 0 0 1 1284.7 51.8 L 1283.5 52.6 L 1264.7 52.6 A 29.7 29.7 0 0 0 1261.266 52.786 Q 1257.769 53.194 1255.5 54.5 Q 1252.2 56.4 1252.2 60.5 A 8.351 8.351 0 0 0 1252.886 63.778 A 10.046 10.046 0 0 0 1253.2 64.45 Q 1254.2 66.4 1255.5 67.7 A 24.466 24.466 0 0 1 1262.62 63.235 A 27.673 27.673 0 0 1 1262.95 63.1 Q 1267.2 61.4 1271.9 61.4 A 23.707 23.707 0 0 1 1275.447 61.651 Q 1277.908 62.024 1279.85 62.95 Q 1283.1 64.5 1285.05 66.9 A 17.715 17.715 0 0 1 1287.037 69.899 A 14.932 14.932 0 0 1 1287.9 71.9 A 18.585 18.585 0 0 1 1288.483 73.93 Q 1288.721 74.997 1288.78 75.966 A 10.345 10.345 0 0 1 1288.8 76.6 A 11.554 11.554 0 0 1 1284.332 85.769 Q 1282.546 87.27 1280.046 88.506 A 30.832 30.832 0 0 1 1278.3 89.3 L 1273.6 82.6 A 22.871 22.871 0 0 0 1278.155 79.71 A 20.659 20.659 0 0 0 1279.35 78.65 A 7.744 7.744 0 0 0 1281.798 73.018 A 9.85 9.85 0 0 0 1281.8 72.8 A 6.626 6.626 0 0 0 1281.605 71.139 A 4.318 4.318 0 0 0 1279.8 68.55 A 7.089 7.089 0 0 0 1277.784 67.633 Q 1276.851 67.364 1275.733 67.262 A 15.802 15.802 0 0 0 1274.3 67.2 A 16.83 16.83 0 0 0 1268.668 68.123 A 15.429 15.429 0 0 0 1265.85 69.45 A 17.117 17.117 0 0 0 1260.586 74.277 A 16.664 16.664 0 0 0 1259.95 75.25 A 14.631 14.631 0 0 0 1258.015 80.267 A 13.741 13.741 0 0 0 1257.8 82.7 A 11.935 11.935 0 0 0 1258.518 86.688 Q 1259.085 88.295 1260.1 89.95 Q 1261.787 92.7 1265.329 95.262 A 36.62 36.62 0 0 0 1268.15 97.1 A 40.952 40.952 0 0 0 1272.617 99.355 Q 1277.372 101.428 1284 103.2 Z M 1002.8 47 L 1006.5 54.8 Q 998.264 55.577 993.922 57.471 A 13.053 13.053 0 0 0 991.75 58.65 Q 987.6 61.5 987.6 65.1 A 6.3 6.3 0 0 0 989.759 69.966 A 8.611 8.611 0 0 0 990.55 70.6 A 11.34 11.34 0 0 0 996.246 72.646 A 14.342 14.342 0 0 0 997.5 72.7 A 14.126 14.126 0 0 0 999.74 72.505 Q 1002.047 72.133 1005 71.05 A 26.038 26.038 0 0 0 1008.283 69.555 Q 1011.594 67.786 1015.592 64.706 A 105.322 105.322 0 0 0 1015.6 64.7 L 1015.8 36.6 L 1006.9 36.6 L 1003.5 30.1 L 1003.5 29.1 L 1032.4 29.1 L 1035.8 35.6 L 1035.8 36.6 L 1024.1 36.6 L 1024.3 92.1 L 1023.3 92.1 L 1015.4 87 L 1015.5 75 A 35.686 35.686 0 0 1 1012.098 76.812 Q 1010.369 77.61 1008.744 78.093 A 20.426 20.426 0 0 1 1008 78.3 A 30.903 30.903 0 0 1 1004.851 78.946 Q 1003.141 79.2 1001.6 79.2 A 23.016 23.016 0 0 1 996.388 78.63 A 19.221 19.221 0 0 1 992.75 77.4 A 22.725 22.725 0 0 1 987.984 74.507 A 20.038 20.038 0 0 1 986.05 72.75 Q 983.3 69.9 981.8 66.7 A 17.643 17.643 0 0 1 980.801 64.071 Q 980.363 62.538 980.308 61.107 A 10.623 10.623 0 0 1 980.3 60.7 A 9.372 9.372 0 0 1 982.7 54.43 A 13.132 13.132 0 0 1 983.8 53.3 Q 979.4 51 976.2 47.15 A 13.926 13.926 0 0 1 973.68 42.752 A 12.729 12.729 0 0 1 973 38.6 A 11.331 11.331 0 0 1 973.542 35.014 A 9.245 9.245 0 0 1 976.55 30.7 A 12.595 12.595 0 0 1 982.201 28.112 A 17.679 17.679 0 0 1 985.6 27.8 Q 989.9 27.8 992.45 29.45 Q 995 31.1 996.2 33.75 Q 997.4 36.4 997.4 39.3 Q 997.4 40 997.35 40.7 Q 997.3 41.4 997.2 42 L 996.3 42 Q 995.071 38.123 993.171 36.482 A 5.734 5.734 0 0 0 992.95 36.3 A 7.536 7.536 0 0 0 988.993 34.749 A 9.762 9.762 0 0 0 988 34.7 A 9.685 9.685 0 0 0 985.489 35.01 A 7.239 7.239 0 0 0 982.45 36.65 A 6.453 6.453 0 0 0 980.33 41.067 A 8.911 8.911 0 0 0 980.3 41.8 A 8.547 8.547 0 0 0 980.594 44.113 A 5.905 5.905 0 0 0 983.1 47.55 Q 985.9 49.4 989.1 49.4 A 18.72 18.72 0 0 0 993.11 48.949 A 23.021 23.021 0 0 0 995.15 48.4 A 27.466 27.466 0 0 1 998.048 47.663 Q 999.526 47.366 1001.218 47.164 A 52.632 52.632 0 0 1 1002.8 47 Z M 87.7 88.6 L 83.4 92.1 L 82.4 92.1 Q 76.687 84.697 72.527 78.459 A 158.897 158.897 0 0 1 70.6 75.5 A 36.802 36.802 0 0 1 67.924 70.531 Q 65.9 65.9 65.9 61.7 A 14.889 14.889 0 0 1 66.504 57.327 A 10.874 10.874 0 0 1 71.65 50.95 Q 77.4 47.6 86.9 47.6 L 101 47.6 L 101.1 36.6 L 61.7 36.6 L 58.3 30.1 L 58.3 29.1 L 117.8 29.1 L 121.2 35.6 L 121.2 36.6 L 109.5 36.6 L 109.7 92.1 L 108.7 92.1 L 100.7 86.9 L 100.9 55.1 L 88 55.1 A 26.051 26.051 0 0 0 83.998 55.386 Q 81.958 55.704 80.326 56.375 A 10.645 10.645 0 0 0 77.15 58.35 A 10.92 10.92 0 0 0 74.46 62.025 A 10.532 10.532 0 0 0 73.6 66.3 Q 73.6 68.5 74.25 70.5 Q 74.9 72.5 76.45 74.9 Q 78 77.3 80.75 80.55 Q 83.434 83.721 87.498 88.369 A 1131.44 1131.44 0 0 0 87.7 88.6 Z M 229.3 88.6 L 225 92.1 L 224 92.1 Q 218.287 84.697 214.127 78.459 A 158.897 158.897 0 0 1 212.2 75.5 A 36.802 36.802 0 0 1 209.524 70.531 Q 207.5 65.9 207.5 61.7 A 14.889 14.889 0 0 1 208.104 57.327 A 10.874 10.874 0 0 1 213.25 50.95 Q 219 47.6 228.5 47.6 L 242.6 47.6 L 242.7 36.6 L 203.3 36.6 L 199.9 30.1 L 199.9 29.1 L 259.4 29.1 L 262.8 35.6 L 262.8 36.6 L 251.1 36.6 L 251.3 92.1 L 250.3 92.1 L 242.3 86.9 L 242.5 55.1 L 229.6 55.1 A 26.051 26.051 0 0 0 225.598 55.386 Q 223.558 55.704 221.926 56.375 A 10.645 10.645 0 0 0 218.75 58.35 A 10.92 10.92 0 0 0 216.06 62.025 A 10.532 10.532 0 0 0 215.2 66.3 Q 215.2 68.5 215.85 70.5 Q 216.5 72.5 218.05 74.9 Q 219.6 77.3 222.35 80.55 Q 225.034 83.721 229.098 88.369 A 1131.44 1131.44 0 0 0 229.3 88.6 Z M 492.7 88.6 L 488.4 92.1 L 487.4 92.1 Q 481.687 84.697 477.527 78.459 A 158.897 158.897 0 0 1 475.6 75.5 A 36.802 36.802 0 0 1 472.924 70.531 Q 470.9 65.9 470.9 61.7 A 14.889 14.889 0 0 1 471.504 57.327 A 10.874 10.874 0 0 1 476.65 50.95 Q 482.4 47.6 491.9 47.6 L 506 47.6 L 506.1 36.6 L 466.7 36.6 L 463.3 30.1 L 463.3 29.1 L 522.8 29.1 L 526.2 35.6 L 526.2 36.6 L 514.5 36.6 L 514.7 92.1 L 513.7 92.1 L 505.7 86.9 L 505.9 55.1 L 493 55.1 A 26.051 26.051 0 0 0 488.998 55.386 Q 486.958 55.704 485.326 56.375 A 10.645 10.645 0 0 0 482.15 58.35 A 10.92 10.92 0 0 0 479.46 62.025 A 10.532 10.532 0 0 0 478.6 66.3 Q 478.6 68.5 479.25 70.5 Q 479.9 72.5 481.45 74.9 Q 483 77.3 485.75 80.55 Q 488.434 83.721 492.498 88.369 A 1131.44 1131.44 0 0 0 492.7 88.6 Z M 824 88.6 L 819.7 92.1 L 818.7 92.1 Q 812.987 84.697 808.827 78.459 A 158.897 158.897 0 0 1 806.9 75.5 A 36.802 36.802 0 0 1 804.224 70.531 Q 802.2 65.9 802.2 61.7 A 14.889 14.889 0 0 1 802.804 57.327 A 10.874 10.874 0 0 1 807.95 50.95 Q 813.7 47.6 823.2 47.6 L 837.3 47.6 L 837.4 36.6 L 798 36.6 L 794.6 30.1 L 794.6 29.1 L 854.1 29.1 L 857.5 35.6 L 857.5 36.6 L 845.8 36.6 L 846 92.1 L 845 92.1 L 837 86.9 L 837.2 55.1 L 824.3 55.1 A 26.051 26.051 0 0 0 820.298 55.386 Q 818.258 55.704 816.626 56.375 A 10.645 10.645 0 0 0 813.45 58.35 A 10.92 10.92 0 0 0 810.76 62.025 A 10.532 10.532 0 0 0 809.9 66.3 Q 809.9 68.5 810.55 70.5 Q 811.2 72.5 812.75 74.9 Q 814.3 77.3 817.05 80.55 Q 819.734 83.721 823.798 88.369 A 1131.44 1131.44 0 0 0 824 88.6 Z M 707.9 88.9 L 702.8 93.1 L 701.8 93.1 L 684.1 71.5 Q 680.406 66.901 678.531 63.979 A 26.911 26.911 0 0 1 677.5 62.25 Q 675.822 59.141 675.8 56.958 A 5.745 5.745 0 0 1 675.8 56.9 Q 675.8 53.844 680.45 53.707 A 15.184 15.184 0 0 1 680.9 53.7 Q 682.048 53.7 683.871 53.817 A 106.79 106.79 0 0 1 685.05 53.9 Q 687.7 54.1 689.5 54.3 Q 689.934 52.132 690.104 49.4 A 52.668 52.668 0 0 0 690.15 48.55 A 164.28 164.28 0 0 0 690.241 46.232 Q 690.271 45.316 690.285 44.483 A 90.22 90.22 0 0 0 690.3 42.9 Q 690.3 40.7 690.25 39.25 Q 690.2 37.8 690.1 36.6 L 671.8 36.6 L 668.4 30.1 L 668.4 29.1 L 738.5 29.1 L 741.9 35.6 L 741.9 36.6 L 730.2 36.6 L 730.4 92.1 L 729.4 92.1 L 721.4 86.9 L 721.5 67.2 Q 717.4 68.7 712.9 68.7 Q 710.1 68.7 705.7 67.55 A 17.639 17.639 0 0 1 702.521 66.352 Q 699.341 64.819 695.6 61.8 A 10.306 10.306 0 0 1 690.628 66.303 A 16.047 16.047 0 0 1 687.1 67.4 L 707.9 88.9 Z M 1122.4 88.9 L 1117.3 93.1 L 1116.3 93.1 L 1098.6 71.5 Q 1094.906 66.901 1093.031 63.979 A 26.911 26.911 0 0 1 1092 62.25 Q 1090.322 59.141 1090.3 56.958 A 5.745 5.745 0 0 1 1090.3 56.9 Q 1090.3 53.844 1094.95 53.707 A 15.184 15.184 0 0 1 1095.4 53.7 Q 1096.548 53.7 1098.371 53.817 A 106.79 106.79 0 0 1 1099.55 53.9 Q 1102.2 54.1 1104 54.3 Q 1104.434 52.132 1104.604 49.4 A 52.668 52.668 0 0 0 1104.65 48.55 A 164.28 164.28 0 0 0 1104.741 46.232 Q 1104.771 45.316 1104.785 44.483 A 90.22 90.22 0 0 0 1104.8 42.9 Q 1104.8 40.7 1104.75 39.25 Q 1104.7 37.8 1104.6 36.6 L 1086.3 36.6 L 1082.9 30.1 L 1082.9 29.1 L 1153 29.1 L 1156.4 35.6 L 1156.4 36.6 L 1144.7 36.6 L 1144.9 92.1 L 1143.9 92.1 L 1135.9 86.9 L 1136 67.2 Q 1131.9 68.7 1127.4 68.7 Q 1124.6 68.7 1120.2 67.55 A 17.639 17.639 0 0 1 1117.021 66.352 Q 1113.841 64.819 1110.1 61.8 A 10.306 10.306 0 0 1 1105.128 66.303 A 16.047 16.047 0 0 1 1101.6 67.4 L 1122.4 88.9 Z M 923.2 55.4 L 923.5 55.4 L 923.6 36.6 L 881.3 36.6 L 877.9 30.1 L 877.9 29.1 L 940.3 29.1 L 943.7 35.6 L 943.7 36.6 L 932 36.6 L 932.2 92.1 L 931.2 92.1 L 923.2 86.9 L 923.3 70.9 L 923.1 70.9 A 13.916 13.916 0 0 1 917.723 75.652 A 18.004 18.004 0 0 1 915.8 76.5 A 28.073 28.073 0 0 1 909.247 78.124 A 24.944 24.944 0 0 1 906.3 78.3 A 25.941 25.941 0 0 1 901.534 77.883 A 19.344 19.344 0 0 1 896.85 76.4 A 22.854 22.854 0 0 1 892.517 73.774 A 19.403 19.403 0 0 1 890.1 71.55 Q 887.4 68.6 886.1 65.25 Q 884.822 61.957 884.8 59.099 A 12.993 12.993 0 0 1 884.8 59 Q 884.8 54.6 887.4 51.35 A 16.132 16.132 0 0 1 891.849 47.543 A 20.81 20.81 0 0 1 894.45 46.25 A 24.39 24.39 0 0 1 902.082 44.476 A 28.972 28.972 0 0 1 904.2 44.4 A 24.192 24.192 0 0 1 911.149 45.369 A 21.149 21.149 0 0 1 915.65 47.3 Q 920.7 50.2 923.2 55.4 Z M 1050.8 36.6 L 1051 92.6 L 1050 92.6 L 1042 87.4 L 1042.4 36.6 L 1033.6 36.6 L 1030.2 30.1 L 1030.2 29.1 L 1042.9 29.1 A 23.62 23.62 0 0 1 1041.201 25.987 A 18.843 18.843 0 0 1 1040.3 23.55 Q 1039.5 20.8 1039.5 18.2 Q 1039.5 14.2 1041.55 10.8 A 13.379 13.379 0 0 1 1044.938 7.079 A 18.446 18.446 0 0 1 1047.9 5.25 Q 1051.548 3.426 1056.78 3.149 A 36.39 36.39 0 0 1 1058.7 3.1 A 36.573 36.573 0 0 1 1068.42 4.453 A 42.521 42.521 0 0 1 1070.7 5.15 Q 1076.192 6.996 1082.333 10.909 A 78.946 78.946 0 0 1 1083.7 11.8 A 96.3 96.3 0 0 1 1089.967 16.38 Q 1093.1 18.856 1096.446 21.848 A 175.749 175.749 0 0 1 1098.7 23.9 L 1096 27 Q 1090.7 22.5 1085.1 18.85 A 59.82 59.82 0 0 0 1075.29 13.647 A 54.589 54.589 0 0 0 1073.65 13 Q 1067.8 10.8 1061.8 10.8 A 26.307 26.307 0 0 0 1058.242 11.026 Q 1056.424 11.275 1054.91 11.797 A 12.842 12.842 0 0 0 1053.15 12.55 A 13.947 13.947 0 0 0 1050.693 14.162 A 9.984 9.984 0 0 0 1048.3 17 Q 1046.8 19.7 1046.8 22.8 Q 1046.8 24.5 1047.25 26 A 18.059 18.059 0 0 0 1047.949 27.914 A 22.083 22.083 0 0 0 1048.5 29.1 L 1059.1 29.1 L 1062.5 35.6 L 1062.5 36.6 L 1050.8 36.6 Z M 1195.8 54.3 L 1196 36.6 L 1154.2 36.6 L 1150.8 30.1 L 1150.8 29.1 L 1212.7 29.1 L 1216.1 35.6 L 1216.1 36.6 L 1204.4 36.6 L 1204.6 92.1 L 1203.6 92.1 L 1195.6 86.9 L 1195.7 71 Q 1193.02 72.761 1190.868 74.053 A 84.78 84.78 0 0 1 1189.6 74.8 Q 1187 76.3 1184.45 77.05 A 18.024 18.024 0 0 1 1181.387 77.655 A 23.923 23.923 0 0 1 1178.7 77.8 A 25.397 25.397 0 0 1 1174.129 77.408 A 18.858 18.858 0 0 1 1169.6 76 A 21.173 21.173 0 0 1 1164.924 73.085 A 18.769 18.769 0 0 1 1163.05 71.3 A 22.059 22.059 0 0 1 1160.132 67.321 A 19.242 19.242 0 0 1 1159.05 65.1 A 19.6 19.6 0 0 1 1158.092 62.143 A 14.246 14.246 0 0 1 1157.7 58.9 Q 1157.7 54.7 1160.25 51.4 Q 1162.8 48.1 1167 46.25 A 22.139 22.139 0 0 1 1175.414 44.409 A 25.576 25.576 0 0 1 1176.1 44.4 Q 1182.1 44.4 1187.1 47.2 Q 1192.1 50 1195.8 54.3 Z M 63.9 35.6 L 63.9 36.6 L 52.2 36.6 L 52.4 92.1 L 51.4 92.1 L 43.5 87 L 43.9 36.6 L 25.3 36.6 L 25.5 71.6 A 3.94 3.94 0 0 1 25.394 72.559 Q 25.006 74.1 23.2 74.1 Q 21.845 74.1 19.808 72.952 A 18.743 18.743 0 0 1 19.05 72.5 A 27.658 27.658 0 0 1 15.961 70.234 A 34.778 34.778 0 0 1 14 68.45 A 30.933 30.933 0 0 1 10.971 65.027 A 26.477 26.477 0 0 1 9.8 63.35 A 14.746 14.746 0 0 1 8.913 61.776 Q 8.1 60.083 8.1 58.7 Q 8.1 57.8 8.7 57.1 A 1.848 1.848 0 0 1 9.52 56.559 Q 9.822 56.455 10.193 56.419 A 4.231 4.231 0 0 1 10.6 56.4 L 17 56.4 L 17.1 36.6 L 3.4 36.6 L 0 30.1 L 0 29.1 L 60.5 29.1 L 63.9 35.6 Z M 205.5 35.6 L 205.5 36.6 L 193.8 36.6 L 194 92.1 L 193 92.1 L 185.1 87 L 185.5 36.6 L 166.9 36.6 L 167.1 71.6 A 3.94 3.94 0 0 1 166.994 72.559 Q 166.606 74.1 164.8 74.1 Q 163.445 74.1 161.408 72.952 A 18.743 18.743 0 0 1 160.65 72.5 A 27.658 27.658 0 0 1 157.561 70.234 A 34.778 34.778 0 0 1 155.6 68.45 A 30.933 30.933 0 0 1 152.571 65.027 A 26.477 26.477 0 0 1 151.4 63.35 A 14.746 14.746 0 0 1 150.513 61.776 Q 149.7 60.083 149.7 58.7 Q 149.7 57.8 150.3 57.1 A 1.848 1.848 0 0 1 151.12 56.559 Q 151.422 56.455 151.793 56.419 A 4.231 4.231 0 0 1 152.2 56.4 L 158.6 56.4 L 158.7 36.6 L 145 36.6 L 141.6 30.1 L 141.6 29.1 L 202.1 29.1 L 205.5 35.6 Z M 468.9 35.6 L 468.9 36.6 L 457.2 36.6 L 457.4 92.1 L 456.4 92.1 L 448.5 87 L 448.9 36.6 L 430.3 36.6 L 430.5 71.6 A 3.94 3.94 0 0 1 430.394 72.559 Q 430.006 74.1 428.2 74.1 Q 426.845 74.1 424.808 72.952 A 18.743 18.743 0 0 1 424.05 72.5 A 27.658 27.658 0 0 1 420.961 70.234 A 34.778 34.778 0 0 1 419 68.45 A 30.933 30.933 0 0 1 415.971 65.027 A 26.477 26.477 0 0 1 414.8 63.35 A 14.746 14.746 0 0 1 413.913 61.776 Q 413.1 60.083 413.1 58.7 Q 413.1 57.8 413.7 57.1 A 1.848 1.848 0 0 1 414.52 56.559 Q 414.822 56.455 415.193 56.419 A 4.231 4.231 0 0 1 415.6 56.4 L 422 56.4 L 422.1 36.6 L 408.4 36.6 L 405 30.1 L 405 29.1 L 465.5 29.1 L 468.9 35.6 Z M 800.2 35.6 L 800.2 36.6 L 788.5 36.6 L 788.7 92.1 L 787.7 92.1 L 779.8 87 L 780.2 36.6 L 761.6 36.6 L 761.8 71.6 A 3.94 3.94 0 0 1 761.694 72.559 Q 761.306 74.1 759.5 74.1 Q 758.145 74.1 756.108 72.952 A 18.743 18.743 0 0 1 755.35 72.5 A 27.658 27.658 0 0 1 752.261 70.234 A 34.778 34.778 0 0 1 750.3 68.45 A 30.933 30.933 0 0 1 747.271 65.027 A 26.477 26.477 0 0 1 746.1 63.35 A 14.746 14.746 0 0 1 745.213 61.776 Q 744.4 60.083 744.4 58.7 Q 744.4 57.8 745 57.1 A 1.848 1.848 0 0 1 745.82 56.559 Q 746.122 56.455 746.493 56.419 A 4.231 4.231 0 0 1 746.9 56.4 L 753.3 56.4 L 753.4 36.6 L 739.7 36.6 L 736.3 30.1 L 736.3 29.1 L 796.8 29.1 L 800.2 35.6 Z M 970.4 35.6 L 970.4 36.6 L 958.7 36.6 L 958.9 92.6 L 957.9 92.6 L 949.9 87.4 L 950.3 36.6 L 941.5 36.6 L 938.1 30.1 L 938.1 29.1 L 951.4 29.1 A 290.795 290.795 0 0 0 949.331 25.594 Q 946.769 21.324 944.747 18.342 A 85.645 85.645 0 0 0 944.1 17.4 A 54.428 54.428 0 0 0 942.211 14.962 Q 940.365 12.723 938.809 11.448 A 13.005 13.005 0 0 0 938.3 11.05 A 9.722 9.722 0 0 0 935.746 9.67 A 8.212 8.212 0 0 0 933 9.2 Q 931.775 9.2 929.817 9.376 A 83.458 83.458 0 0 0 928.55 9.5 Q 925.7 9.8 923.4 10.3 L 918.8 1.8 L 918.9 1.1 A 88.823 88.823 0 0 1 921.67 0.645 Q 923.85 0.325 925.6 0.2 A 194.586 194.586 0 0 1 926.734 0.122 Q 928.597 0 929.3 0 A 13.577 13.577 0 0 1 936.842 2.319 A 18.255 18.255 0 0 1 938.8 3.8 A 37.964 37.964 0 0 1 942.392 7.383 Q 944.039 9.245 945.701 11.521 A 76.071 76.071 0 0 1 947.7 14.4 A 305.482 305.482 0 0 1 951.791 20.817 Q 954.197 24.691 956.8 29.1 L 967 29.1 L 970.4 35.6 Z M 405.7 88.9 L 400.6 93.1 L 399.6 93.1 L 379.8 68.8 Q 376.75 65.091 375.161 62.503 A 23.252 23.252 0 0 1 374.55 61.45 A 20.612 20.612 0 0 1 373.818 59.977 Q 373.178 58.535 373.039 57.465 A 4.391 4.391 0 0 1 373 56.9 Q 373 53.844 377.65 53.707 A 15.184 15.184 0 0 1 378.1 53.7 Q 379.6 53.7 382.2 53.9 Q 384.8 54.1 386.6 54.3 Q 387.034 52.132 387.204 49.4 A 52.668 52.668 0 0 0 387.25 48.55 A 164.28 164.28 0 0 0 387.341 46.232 Q 387.371 45.316 387.385 44.483 A 90.22 90.22 0 0 0 387.4 42.9 A 149.429 149.429 0 0 0 387.393 41.409 Q 387.387 40.823 387.376 40.296 A 77.124 77.124 0 0 0 387.35 39.3 A 64.606 64.606 0 0 0 387.289 37.896 Q 387.251 37.209 387.2 36.6 L 369 36.6 L 365.6 30.1 L 365.6 29.1 L 407.2 29.1 L 410.6 35.6 L 410.6 36.6 L 395.5 36.6 Q 395.6 38.5 395.7 40.8 A 214.24 214.24 0 0 1 395.743 41.847 Q 395.8 43.321 395.8 44 A 91.656 91.656 0 0 1 395.683 48.793 Q 395.442 53.374 394.707 56.555 A 25.659 25.659 0 0 1 394.6 57 A 22.173 22.173 0 0 1 393.653 59.954 Q 393.048 61.446 392.268 62.603 A 10.216 10.216 0 0 1 390.95 64.2 A 12.078 12.078 0 0 1 385.565 67.236 A 14.59 14.59 0 0 1 384.9 67.4 L 405.7 88.9 Z M 669.1 88.9 L 664 93.1 L 663 93.1 L 643.2 68.8 Q 640.15 65.091 638.561 62.503 A 23.252 23.252 0 0 1 637.95 61.45 A 20.612 20.612 0 0 1 637.218 59.977 Q 636.578 58.535 636.439 57.465 A 4.391 4.391 0 0 1 636.4 56.9 Q 636.4 53.844 641.05 53.707 A 15.184 15.184 0 0 1 641.5 53.7 Q 643 53.7 645.6 53.9 Q 648.2 54.1 650 54.3 Q 650.434 52.132 650.604 49.4 A 52.668 52.668 0 0 0 650.65 48.55 A 164.28 164.28 0 0 0 650.741 46.232 Q 650.771 45.316 650.785 44.483 A 90.22 90.22 0 0 0 650.8 42.9 A 149.429 149.429 0 0 0 650.793 41.409 Q 650.787 40.823 650.776 40.296 A 77.124 77.124 0 0 0 650.75 39.3 A 64.606 64.606 0 0 0 650.689 37.896 Q 650.651 37.209 650.6 36.6 L 632.4 36.6 L 629 30.1 L 629 29.1 L 670.6 29.1 L 674 35.6 L 674 36.6 L 658.9 36.6 Q 659 38.5 659.1 40.8 A 214.24 214.24 0 0 1 659.143 41.847 Q 659.2 43.321 659.2 44 A 91.656 91.656 0 0 1 659.083 48.793 Q 658.842 53.374 658.107 56.555 A 25.659 25.659 0 0 1 658 57 A 22.173 22.173 0 0 1 657.053 59.954 Q 656.448 61.446 655.668 62.603 A 10.216 10.216 0 0 1 654.35 64.2 A 12.078 12.078 0 0 1 648.965 67.236 A 14.59 14.59 0 0 1 648.3 67.4 L 669.1 88.9 Z M 293.4 36.6 L 286.6 36.6 L 283.2 30.1 L 283.2 29.1 L 341.1 29.1 L 344.5 35.6 L 344.5 36.6 L 332.8 36.6 L 333 92.1 L 332 92.1 L 324 86.9 L 324.1 71.1 A 24.763 24.763 0 0 1 319.843 73.172 Q 316.913 74.247 314.079 74.298 A 15.666 15.666 0 0 1 313.8 74.3 Q 309.9 74.3 306.3 72.5 Q 302.7 70.7 299.8 67.9 A 27.003 27.003 0 0 1 296.779 64.469 A 22.219 22.219 0 0 1 295.2 62 Q 293.5 58.9 293.4 56.4 Q 293.3 55 293.3 53.8 L 293.3 51.5 Q 293.3 48.3 293.35 44.4 Q 293.4 40.5 293.4 36.6 Z M 556.8 36.6 L 550 36.6 L 546.6 30.1 L 546.6 29.1 L 604.5 29.1 L 607.9 35.6 L 607.9 36.6 L 596.2 36.6 L 596.4 92.1 L 595.4 92.1 L 587.4 86.9 L 587.5 71.1 A 24.763 24.763 0 0 1 583.243 73.172 Q 580.313 74.247 577.479 74.298 A 15.666 15.666 0 0 1 577.2 74.3 Q 573.3 74.3 569.7 72.5 Q 566.1 70.7 563.2 67.9 A 27.003 27.003 0 0 1 560.179 64.469 A 22.219 22.219 0 0 1 558.6 62 Q 556.9 58.9 556.8 56.4 Q 556.7 55 556.7 53.8 L 556.7 51.5 Q 556.7 48.3 556.75 44.4 Q 556.8 40.5 556.8 36.6 Z M 371.2 35.6 L 371.2 36.6 L 359.5 36.6 L 359.7 92.6 L 358.7 92.6 L 350.7 87.4 L 351.1 36.6 L 342.3 36.6 L 338.9 30.1 L 338.9 29.1 L 367.8 29.1 L 371.2 35.6 Z M 634.6 35.6 L 634.6 36.6 L 622.9 36.6 L 623.1 92.6 L 622.1 92.6 L 614.1 87.4 L 614.5 36.6 L 605.7 36.6 L 602.3 30.1 L 602.3 29.1 L 631.2 29.1 L 634.6 35.6 Z M 1242.8 35.6 L 1242.8 36.6 L 1231.1 36.6 L 1231.3 92.6 L 1230.3 92.6 L 1222.3 87.4 L 1222.7 36.6 L 1213.9 36.6 L 1210.5 30.1 L 1210.5 29.1 L 1239.4 29.1 L 1242.8 35.6 Z M 1322.7 35.6 L 1322.7 36.6 L 1311 36.6 L 1311.2 92.6 L 1310.2 92.6 L 1302.2 87.4 L 1302.6 36.6 L 1293.8 36.6 L 1290.4 30.1 L 1290.4 29.1 L 1319.3 29.1 L 1322.7 35.6 Z M 74.2 10.3 L 69.6 1.8 L 69.7 1.1 A 88.823 88.823 0 0 1 72.47 0.645 Q 74.65 0.325 76.4 0.2 A 194.586 194.586 0 0 1 77.534 0.122 Q 79.397 0 80.1 0 A 13.577 13.577 0 0 1 87.642 2.319 A 18.255 18.255 0 0 1 89.6 3.8 A 37.452 37.452 0 0 1 93.192 7.391 Q 94.839 9.261 96.501 11.551 A 75.834 75.834 0 0 1 98.5 14.45 Q 103 21.3 108.3 30.3 L 102.9 30.3 A 279.822 279.822 0 0 0 100.051 25.479 Q 97.502 21.267 95.493 18.365 A 75.295 75.295 0 0 0 94.85 17.45 Q 91.93 13.362 89.616 11.454 A 12.49 12.49 0 0 0 89.1 11.05 A 9.722 9.722 0 0 0 86.546 9.67 A 8.212 8.212 0 0 0 83.8 9.2 Q 82.575 9.2 80.617 9.376 A 83.458 83.458 0 0 0 79.35 9.5 Q 76.5 9.8 74.2 10.3 Z M 215.8 10.3 L 211.2 1.8 L 211.3 1.1 A 88.823 88.823 0 0 1 214.07 0.645 Q 216.25 0.325 218 0.2 A 194.586 194.586 0 0 1 219.134 0.122 Q 220.997 0 221.7 0 A 13.577 13.577 0 0 1 229.242 2.319 A 18.255 18.255 0 0 1 231.2 3.8 A 37.452 37.452 0 0 1 234.792 7.391 Q 236.439 9.261 238.101 11.551 A 75.834 75.834 0 0 1 240.1 14.45 Q 244.6 21.3 249.9 30.3 L 244.5 30.3 A 279.822 279.822 0 0 0 241.651 25.479 Q 239.102 21.267 237.093 18.365 A 75.295 75.295 0 0 0 236.45 17.45 Q 233.53 13.362 231.216 11.454 A 12.49 12.49 0 0 0 230.7 11.05 A 9.722 9.722 0 0 0 228.146 9.67 A 8.212 8.212 0 0 0 225.4 9.2 Q 224.175 9.2 222.217 9.376 A 83.458 83.458 0 0 0 220.95 9.5 Q 218.1 9.8 215.8 10.3 Z M 479.2 10.3 L 474.6 1.8 L 474.7 1.1 A 88.823 88.823 0 0 1 477.47 0.645 Q 479.65 0.325 481.4 0.2 A 194.586 194.586 0 0 1 482.534 0.122 Q 484.397 0 485.1 0 A 13.577 13.577 0 0 1 492.642 2.319 A 18.255 18.255 0 0 1 494.6 3.8 A 37.452 37.452 0 0 1 498.192 7.391 Q 499.839 9.261 501.501 11.551 A 75.834 75.834 0 0 1 503.5 14.45 Q 508 21.3 513.3 30.3 L 507.9 30.3 A 279.822 279.822 0 0 0 505.051 25.479 Q 502.502 21.267 500.493 18.365 A 75.295 75.295 0 0 0 499.85 17.45 Q 496.93 13.362 494.616 11.454 A 12.49 12.49 0 0 0 494.1 11.05 A 9.722 9.722 0 0 0 491.546 9.67 A 8.212 8.212 0 0 0 488.8 9.2 Q 487.575 9.2 485.617 9.376 A 83.458 83.458 0 0 0 484.35 9.5 Q 481.5 9.8 479.2 10.3 Z M 810.5 10.3 L 805.9 1.8 L 806 1.1 A 88.823 88.823 0 0 1 808.77 0.645 Q 810.95 0.325 812.7 0.2 A 194.586 194.586 0 0 1 813.834 0.122 Q 815.697 0 816.4 0 A 13.577 13.577 0 0 1 823.942 2.319 A 18.255 18.255 0 0 1 825.9 3.8 A 37.452 37.452 0 0 1 829.492 7.391 Q 831.139 9.261 832.801 11.551 A 75.834 75.834 0 0 1 834.8 14.45 Q 839.3 21.3 844.6 30.3 L 839.2 30.3 A 279.822 279.822 0 0 0 836.351 25.479 Q 833.802 21.267 831.793 18.365 A 75.295 75.295 0 0 0 831.15 17.45 Q 828.23 13.362 825.916 11.454 A 12.49 12.49 0 0 0 825.4 11.05 A 9.722 9.722 0 0 0 822.846 9.67 A 8.212 8.212 0 0 0 820.1 9.2 Q 818.875 9.2 816.917 9.376 A 83.458 83.458 0 0 0 815.65 9.5 Q 812.8 9.8 810.5 10.3 Z M 324.2 60.7 L 324.4 36.6 L 301.9 36.6 L 302.1 58.6 Q 302.1 61.486 302.895 63.433 A 6.495 6.495 0 0 0 304.3 65.6 Q 306.489 67.789 308.975 67.8 A 5.683 5.683 0 0 0 309 67.8 A 11.423 11.423 0 0 0 311.756 67.44 Q 312.988 67.133 314.323 66.566 A 23.443 23.443 0 0 0 315.75 65.9 A 53.126 53.126 0 0 0 318.954 64.125 Q 320.642 63.117 322.489 61.876 A 101.739 101.739 0 0 0 324.2 60.7 Z M 587.6 60.7 L 587.8 36.6 L 565.3 36.6 L 565.5 58.6 Q 565.5 61.486 566.295 63.433 A 6.495 6.495 0 0 0 567.7 65.6 Q 569.889 67.789 572.375 67.8 A 5.683 5.683 0 0 0 572.4 67.8 A 11.423 11.423 0 0 0 575.156 67.44 Q 576.388 67.133 577.723 66.566 A 23.443 23.443 0 0 0 579.15 65.9 A 53.126 53.126 0 0 0 582.354 64.125 Q 584.042 63.117 585.889 61.876 A 101.739 101.739 0 0 0 587.6 60.7 Z M 1135.7 103.1 L 1132 95.2 L 1132.2 94.6 A 37.949 37.949 0 0 1 1135.068 94.169 Q 1136.425 94.021 1137.652 94.003 A 23.056 23.056 0 0 1 1138 94 Q 1141.3 94 1144.4 95.25 A 23.771 23.771 0 0 1 1148.081 97.14 A 30.358 30.358 0 0 1 1150.6 98.9 Q 1151.797 99.821 1154.52 102.183 A 315.282 315.282 0 0 1 1155 102.6 Q 1157.894 105.121 1161.486 108.339 A 879.261 879.261 0 0 1 1162 108.8 Q 1165.9 112.3 1169.6 115.9 L 1166.2 119.7 L 1165.5 119.7 Q 1160.939 114.569 1157.732 111.244 A 147.475 147.475 0 0 0 1157.4 110.9 A 85.089 85.089 0 0 0 1155.238 108.746 Q 1153.275 106.864 1151.7 105.65 A 18.838 18.838 0 0 0 1149.665 104.272 Q 1148.583 103.644 1147.533 103.263 A 10.903 10.903 0 0 0 1147.05 103.1 A 15.471 15.471 0 0 0 1143.903 102.483 A 19.157 19.157 0 0 0 1142.1 102.4 Q 1139.7 102.4 1138.1 102.7 Q 1136.95 102.916 1136.214 103.028 A 19.499 19.499 0 0 1 1135.7 103.1 Z M 721.6 57.3 L 721.8 36.6 L 698.2 36.6 Q 698.4 38.5 698.45 40.8 A 427.727 427.727 0 0 1 698.472 41.847 Q 698.493 42.976 698.498 43.638 A 47.501 47.501 0 0 1 698.5 44 Q 698.5 48.4 698.15 52 A 56.68 56.68 0 0 1 697.907 54.113 Q 697.613 56.288 697.2 57.8 A 10.734 10.734 0 0 0 698.053 58.242 Q 699.103 58.734 700.65 59.25 A 37.45 37.45 0 0 0 704.194 60.234 A 43.012 43.012 0 0 0 705.45 60.5 A 27.045 27.045 0 0 0 708.54 60.93 A 22.54 22.54 0 0 0 710.3 61 Q 713.8 61 716.9 59.85 Q 720 58.7 721.6 57.3 Z M 1136.1 57.3 L 1136.3 36.6 L 1112.7 36.6 Q 1112.9 38.5 1112.95 40.8 A 427.727 427.727 0 0 1 1112.972 41.847 Q 1112.993 42.976 1112.998 43.638 A 47.501 47.501 0 0 1 1113 44 Q 1113 48.4 1112.65 52 A 56.68 56.68 0 0 1 1112.407 54.113 Q 1112.113 56.288 1111.7 57.8 A 10.734 10.734 0 0 0 1112.553 58.242 Q 1113.603 58.734 1115.15 59.25 A 37.45 37.45 0 0 0 1118.694 60.234 A 43.012 43.012 0 0 0 1119.95 60.5 A 27.045 27.045 0 0 0 1123.04 60.93 A 22.54 22.54 0 0 0 1124.8 61 Q 1128.3 61 1131.4 59.85 Q 1134.5 58.7 1136.1 57.3 Z M 1195.8 60.6 L 1195.8 59.8 A 26.565 26.565 0 0 0 1191.454 56.418 A 34.323 34.323 0 0 0 1187.85 54.45 A 23.324 23.324 0 0 0 1181.744 52.491 A 20.619 20.619 0 0 0 1178.3 52.2 A 17.696 17.696 0 0 0 1173.514 52.821 A 14.27 14.27 0 0 0 1168.9 55.05 Q 1165 57.9 1165 63.2 A 9.114 9.114 0 0 0 1165.331 65.725 A 6.658 6.658 0 0 0 1167.8 69.3 A 10.501 10.501 0 0 0 1173.581 71.375 A 13.188 13.188 0 0 0 1174.4 71.4 A 14.127 14.127 0 0 0 1177.572 71.011 Q 1180.071 70.434 1183 69 A 43.691 43.691 0 0 0 1186.264 67.203 Q 1190.307 64.772 1195.8 60.6 Z M 910.1 70.7 L 897.1 54.4 Q 894.8 55.9 893.35 58 A 8.206 8.206 0 0 0 891.93 62.105 A 10.264 10.264 0 0 0 891.9 62.9 Q 891.9 66.9 895.2 69.4 A 12.197 12.197 0 0 0 900.787 71.713 A 16.322 16.322 0 0 0 903.3 71.9 A 19.208 19.208 0 0 0 910.087 70.705 A 19.034 19.034 0 0 0 910.1 70.7 Z M 901.2 52.6 L 914 68.7 A 14.214 14.214 0 0 0 917.241 65.404 A 13.388 13.388 0 0 0 917.7 64.7 Q 919.1 62.4 919.1 59.6 A 8.593 8.593 0 0 0 918.792 57.221 A 5.901 5.901 0 0 0 915.6 53.45 A 16.378 16.378 0 0 0 910.664 51.926 A 21.381 21.381 0 0 0 907.5 51.7 Q 904.2 51.7 901.2 52.6 Z M 719.1 15.3 L 726 8.3 L 733 15.3 L 726 22.1 L 719.1 15.3 Z"
            vector-effect="non-scaling-stroke" />
    </g>
</svg>